<?xml version="1.0" encoding="UTF-8" standalone="no"?>
<!DOCTYPE svg PUBLIC "-//W3C//DTD SVG 1.1//EN" "http://www.w3.org/Graphics/SVG/1.1/DTD/svg11.dtd">
<svg width="100%" height="100%" viewBox="0 0 1275 1275" version="1.1" xmlns="http://www.w3.org/2000/svg" xmlns:xlink="http://www.w3.org/1999/xlink" xml:space="preserve" style="fill-rule:evenodd;clip-rule:evenodd;stroke-linejoin:round;stroke-miterlimit:1.41421;">
    <g transform="matrix(1,0,0,1,-330.46,-3464.49)">
        <g id="engplay" transform="matrix(0.702326,0,0,0.702326,98.3692,1031.29)">
            <rect x="330.46" y="3464.49" width="1815.4" height="1815.4" style="fill:none;"/>
            <g transform="matrix(0.78191,0,0,0.78191,-126.752,3150.12)">
                <path d="M1272.87,1681.76C1325.89,1682.28 1376.18,1726.57 1383.9,1819.87C1393.32,1933.62 1321.81,2031.26 1238.06,2060.25L1072.35,2115.66C1072.35,2115.66 1072.35,2282.88 1072.35,2380.97C1072.35,2396.97 1080.1,2411.99 1093.14,2421.28C1106.18,2430.56 1122.9,2432.97 1138.03,2427.73C1149.98,2423.6 1158.75,2420.56 1158.75,2420.56L1158.75,2474.1L891.354,2566.66L891.354,2512.94C891.354,2512.94 891.355,2512.94 891.355,2512.94C921.881,2502.38 942.354,2473.62 942.354,2441.32C942.354,2318.35 942.352,1966.94 942.352,1843.97C942.352,1831.54 936.34,1819.88 926.214,1812.67C916.089,1805.46 903.101,1803.59 891.354,1807.66L1238.06,1687.65C1249.26,1683.71 1260.75,1681.73 1272.11,1681.75L1272.87,1681.76ZM2140.28,2035.85C2149.15,2059.75 2175.49,2072.19 2199.59,2063.85C2199.59,2063.85 2199.59,2063.85 2199.59,2063.85L2199.59,2117.57L2040.08,2172.78L2040.08,2119.06C2040.08,2119.06 2040.09,2119.06 2040.09,2119.06C2060.99,2111.82 2072.4,2089.32 2065.9,2068.18C2054.9,2032.44 2040.08,2000.99 2040.08,2000.99L1873.16,2058.77C1873.16,2058.77 1870.23,2093.44 1863.3,2134.99C1861.62,2145.06 1865.37,2155.27 1873.16,2161.86C1880.96,2168.44 1891.66,2170.43 1901.3,2167.1C1901.31,2167.1 1901.31,2167.1 1901.31,2167.1L1901.31,2220.81L1433.73,2384.55L1433.73,2328.94C1433.73,2328.94 1433.73,2328.94 1433.73,2328.94C1470.52,2316.21 1495.19,2281.56 1495.19,2242.63C1495.19,2162.27 1495.19,2026.37 1495.19,1946.01C1495.19,1931.03 1487.95,1916.98 1475.74,1908.29C1463.54,1899.6 1447.89,1897.35 1433.73,1902.25C1433.73,1902.25 1433.73,1902.25 1433.73,1902.25L1433.73,1839.73C1454.47,1799.56 1519.2,1768.68 1592.34,1755.98C1592.34,1755.98 1592.34,2078.11 1592.34,2214.34C1592.34,2228.01 1599,2240.83 1610.18,2248.7C1621.36,2256.57 1635.67,2258.5 1648.54,2253.89C1691.66,2238.43 1743.85,2219.71 1743.85,2219.71L1813.97,1855.82L1832.53,1755.08C1948.93,1752.23 1998.12,1683.41 2065.9,1609.87L2065.9,1712.88C2065.9,1712.88 2065.9,1712.88 2065.9,1712.88C2050.12,1723.35 2043.31,1743.08 2049.26,1761.06C2074.85,1838.3 2140.28,2035.85 2140.28,2035.85ZM2180.77,1684.32C2181.34,1739.28 2219.23,1758.87 2299.25,1758.87L2299.25,1887.79C2299.25,2002.85 2496.32,2008.95 2503.35,1817.14L2503.35,1602.24C2470.61,1657.73 2180.77,1747.26 2180.77,1593.6L2180.77,1362.78L2330.25,1311.04L2330.25,1363.86C2330.25,1363.86 2330.25,1363.86 2330.25,1363.86C2311.7,1370.28 2299.25,1387.76 2299.25,1407.39C2299.25,1458.81 2299.25,1552.59 2299.25,1552.59C2299.25,1652.07 2503.35,1605.77 2503.35,1458.89L2503.35,1251.12C2503.35,1251.12 2747.02,1165.39 2799.35,1148.66C2865.89,1127.39 2889.69,1214.3 2891.35,1223.56C2920.76,1386.99 2630.96,1438.09 2657.35,1304.56C2658.29,1299.84 2660.06,1295.25 2662.35,1291.02C2664.69,1286.72 2668.23,1282.75 2671.35,1278.75C2674.52,1274.69 2676.61,1268.87 2681.35,1266.67C2693.69,1260.97 2734.69,1245.25 2745.35,1244.52C2751.26,1244.12 2747.02,1258.75 2745.35,1262.29C2743.85,1265.48 2738.44,1264.04 2735.35,1265.75C2731.02,1268.16 2722.85,1272.25 2719.35,1276.75C2715.92,1281.16 2714.95,1287.19 2714.35,1292.75C2704.8,1382.65 2804.05,1362.49 2817.35,1269.26C2819.03,1257.54 2812.69,1233.55 2805.35,1223.75C2798.43,1214.51 2784.65,1208.08 2773.35,1210.48C2755.27,1214.34 2700.38,1233.79 2658.68,1248.98C2628.21,1259.34 2607.72,1287.94 2607.72,1320.12C2607.64,1450.76 2607.64,1781.04 2607.64,1781.04C2607.64,2048.97 2179.85,2182 2180.77,1928.8L2180.77,1684.32C2180.76,1683.48 2180.76,1682.62 2180.77,1681.75L2180.77,1684.32ZM1074.21,1795.93L1074.21,2054.03L1189.19,2014.23C1244.7,1995.02 1269.46,1898.25 1269.46,1855.24C1269.46,1812.73 1233.15,1740.91 1189.19,1756.13L1074.21,1795.93ZM1884.94,2002.24L2024.88,1953.8L1969.71,1763.31L1915.4,1773.46L1884.94,2002.24ZM834.421,1821.73C834.421,1821.73 783.139,1839.48 748.285,1851.55C617.881,1896.68 706.182,2009.98 748.285,1934.67C804.149,1834.74 834.421,1821.73 834.421,1821.73ZM875.25,1095.14L875.25,1057.23L1613.49,801.697C1613.49,801.697 1780.79,1080.89 1850.78,1197.7C1854.54,1203.98 1862.03,1206.97 1869.08,1205.02C1876.13,1203.07 1881.01,1196.65 1881.01,1189.34C1881.01,1097.78 1881.01,921.79 1881.01,826.507C1881.01,811.531 1873.75,797.483 1861.54,788.816C1849.33,780.149 1833.67,777.936 1819.53,782.88C1819.53,782.88 1819.53,782.88 1819.53,782.88L1819.53,730.379L1979.13,672.768L1979.13,1264.92C1949.38,1338.12 1877.8,1348.22 1796.8,1328.04C1796.8,1328.04 1796.8,1318.02 1796.8,1305.09C1796.8,1267.83 1786.64,1231.28 1767.4,1199.38C1715.6,1113.47 1613.49,944.147 1613.49,944.147C1613.49,944.147 1613.49,1070.2 1613.49,1154.75C1613.49,1171.96 1621.82,1188.12 1635.85,1198.11C1649.87,1208.09 1667.86,1210.68 1684.14,1205.05C1684.14,1205.05 1684.14,1205.05 1684.14,1205.05L1684.64,1263.69C1616.45,1245.5 1554.54,1274.42 1521.86,1348.17C1521.86,1348.17 1521.86,1129.9 1521.86,993.33C1521.86,968.589 1509.89,945.376 1489.74,931.025C1469.59,916.675 1443.74,912.958 1420.36,921.051C1420.36,921.052 1420.35,921.052 1420.35,921.052L1420.35,1084.66L1378.35,1099.2C1378.35,1099.2 1378.35,1070.24 1378.35,1036.68C1378.35,1013.35 1367.07,991.452 1348.06,977.917C1329.05,964.381 1304.67,960.876 1282.62,968.509C1240.23,983.181 1191.11,1000.19 1151.43,1013.92C1106.5,1029.47 1076.35,1071.8 1076.35,1119.36C1076.35,1195.73 1076.35,1299.66 1076.35,1299.66C1076.35,1299.66 1140.06,1277.61 1186.05,1261.69C1213.77,1252.1 1232.35,1225.99 1232.35,1196.66C1232.35,1196.66 1232.35,1196.66 1232.35,1196.66L1266.35,1184.89L1266.35,1349.66L1232.35,1361.43C1232.35,1361.43 1232.35,1361.43 1232.35,1361.43C1232.35,1346.3 1225.04,1332.12 1212.72,1323.35C1200.4,1314.58 1184.61,1312.3 1170.32,1317.25C1126.8,1332.31 1076.35,1349.77 1076.35,1349.77C1076.35,1349.77 1076.35,1468.44 1076.35,1548.37C1076.35,1564.72 1084.29,1580.05 1097.63,1589.5C1110.97,1598.94 1128.07,1601.33 1143.49,1595.89C1192.86,1578.5 1259.74,1554.93 1309.5,1537.39C1350.76,1522.85 1378.35,1483.87 1378.35,1440.12C1378.35,1414.96 1378.35,1392.99 1378.35,1392.99L1420.35,1378.45L1420.35,1554.55L1299.7,1596.32C1299.7,1596.32 1099.31,1671.39 922.032,1733.4C817.483,1769.97 721.351,1803.89 678.354,1811.39C614.162,1822.58 602.297,1721.54 610.354,1663.68C627.574,1540.02 873.939,1439.61 875.25,1630.38C875.317,1640.08 765.188,1687.89 754.354,1688.87C748.83,1689.37 750.899,1676.57 754.354,1672.23C761.854,1662.81 801.016,1649.18 799.354,1632.36C789.298,1530.6 684.617,1561.42 678.354,1640.14C676.903,1658.39 685.075,1755.51 730.354,1741.21C760.88,1731.57 875.25,1689.16 875.25,1689.16C913.178,1670.28 935.041,1640.82 944.354,1606.46L944.354,1138.62C936.535,1098.78 909.328,1091.24 875.25,1095.14ZM1816.33,1587.63C1834.65,1609.37 1890.16,1614.16 1924.3,1632.48C1947.41,1596.15 1998.64,1557.9 1998.64,1506.1L1998.64,1478.44C2028.12,1451.79 2044.34,1435.59 2055.35,1416.66C2049.16,1427.3 2029.46,1374.3 2066.04,1392.66L2066.04,1544.19C1959.67,1670.46 1895.78,1701.5 1778.29,1685.85C1680.17,1675.27 1553.34,1674.12 1462.85,1737.24C1462.85,1737.24 1433.25,1739.94 1425.74,1733.5C1407.35,1717.74 1426.46,1701.14 1448.48,1713.99C1457.02,1718.98 1462.85,1713.99 1462.85,1713.99L1462.85,1608.59C1462.85,1608.59 1491.6,1575.62 1546.09,1551.77C1547.73,1551.06 1549.45,1550.39 1551.25,1549.77L1552.93,1557.23C1553.34,1558.99 1553.78,1560.74 1554.28,1562.47C1555.24,1565.77 1556.38,1569.02 1557.7,1572.19C1559.08,1575.51 1560.65,1578.74 1562.39,1581.87C1563.63,1584.1 1564.95,1586.28 1566.36,1588.4C1567.37,1589.93 1568.42,1591.43 1569.51,1592.91C1577.13,1603.2 1586.55,1612.08 1596.82,1619.7C1598.5,1620.96 1600.22,1622.18 1601.95,1623.37C1604.21,1624.92 1606.52,1626.42 1608.85,1627.87C1611.91,1629.77 1615.02,1631.59 1618.18,1633.33C1622.27,1635.58 1626.44,1637.7 1630.66,1639.7C1635.99,1642.23 1641.4,1644.56 1646.89,1646.73C1650.33,1648.09 1653.8,1649.38 1657.29,1650.62C1671.01,1657.29 1685.26,1662.62 1698.88,1666.81C1726.98,1642.01 1762.07,1605.03 1778.4,1563.83C1783.16,1564.72 1787.78,1565.6 1792.25,1566.46C1792.38,1566.79 1792.51,1567.12 1792.65,1567.45C1792.98,1568.23 1793.35,1568.99 1793.75,1569.73C1794.07,1570.3 1794.41,1570.86 1794.76,1571.4C1797.21,1575.14 1800.56,1578.21 1804.18,1580.78C1804.8,1581.22 1805.42,1581.65 1806.06,1582.06C1806.91,1582.62 1807.78,1583.15 1808.66,1583.66C1809.85,1584.36 1811.06,1585.02 1812.28,1585.66C1813.62,1586.35 1814.97,1587 1816.33,1587.63ZM1644.82,1342.84C1643.47,1342.85 1642.11,1342.87 1640.75,1342.92C1638.23,1343.01 1635.72,1343.18 1633.21,1343.43C1627.38,1344 1621.59,1345.02 1615.93,1346.52C1609.96,1348.1 1604.14,1350.23 1598.56,1352.87C1594.86,1354.63 1591.26,1356.62 1587.79,1358.81C1585.43,1360.3 1583.12,1361.89 1580.88,1363.56C1579.32,1364.73 1577.79,1365.94 1576.29,1367.18C1565.94,1375.77 1557.14,1386.11 1549.62,1397.23C1548.37,1399.08 1547.16,1400.95 1545.98,1402.84C1544.49,1405.21 1543.06,1407.62 1541.67,1410.05C1539.97,1413.03 1538.35,1416.05 1536.78,1419.1L1536.66,1419.34C1546.87,1464.41 1556.84,1509.53 1567.28,1554.54C1567.36,1554.88 1567.44,1555.23 1567.53,1555.58C1567.88,1556.96 1568.26,1558.33 1568.67,1559.69C1569.44,1562.19 1570.35,1564.66 1571.37,1567.08C1572.38,1569.47 1573.52,1571.82 1574.76,1574.1C1575.67,1575.78 1576.64,1577.43 1577.67,1579.04C1583.18,1587.7 1590.2,1595.33 1597.98,1601.99C1599.26,1603.09 1600.57,1604.17 1601.89,1605.22C1603.38,1606.4 1604.9,1607.55 1606.43,1608.68C1608.46,1610.15 1610.52,1611.58 1612.61,1612.96C1615.39,1614.8 1618.22,1616.55 1621.09,1618.22C1624.69,1620.32 1628.35,1622.29 1632.07,1624.16C1636.88,1626.58 1641.77,1628.82 1646.73,1630.91C1650.93,1632.68 1655.17,1634.34 1659.44,1635.9C1661.64,1636.7 1663.85,1637.47 1666.07,1638.22L1666.47,1638.36C1674.09,1631.39 1681.46,1624.15 1688.51,1616.61C1694.02,1610.72 1699.33,1604.65 1704.38,1598.38C1708.21,1593.62 1711.89,1588.75 1715.39,1583.75C1717.99,1580.03 1720.48,1576.24 1722.84,1572.37C1724.65,1569.4 1726.39,1566.39 1728.04,1563.33C1729.26,1561.07 1730.43,1558.79 1731.55,1556.48C1732.49,1554.53 1733.39,1552.55 1734.25,1550.57C1738.62,1540.46 1741.9,1529.82 1743.32,1518.88C1743.5,1517.47 1743.65,1516.04 1743.77,1514.62C1743.92,1512.88 1744.02,1511.13 1744.06,1509.38C1744.12,1506.88 1744.08,1504.38 1743.92,1501.88C1743.75,1499.15 1743.44,1496.44 1743,1493.74C1742.78,1492.43 1742.53,1491.12 1742.25,1489.82L1713.65,1357.22C1708.25,1355.14 1702.79,1353.23 1697.26,1351.52C1691.86,1349.84 1686.4,1348.36 1680.89,1347.1C1672.75,1345.25 1664.49,1343.91 1656.17,1343.27C1652.8,1343.01 1649.43,1342.86 1646.06,1342.84C1645.65,1342.84 1645.23,1342.84 1644.82,1342.84ZM1964.27,1371.71C1962.66,1373.38 1961,1375.01 1959.29,1376.58C1955.78,1379.8 1952.06,1382.8 1948.16,1385.54C1944.13,1388.37 1939.91,1390.92 1935.55,1393.2C1932.44,1394.82 1929.26,1396.31 1926.02,1397.65C1923.56,1398.67 1921.07,1399.61 1918.55,1400.47C1916.72,1401.1 1914.86,1401.69 1913,1402.23C1899.3,1406.26 1885.02,1408.12 1870.77,1408.44C1868.44,1408.49 1866.11,1408.5 1863.78,1408.48C1860.55,1408.44 1857.32,1408.33 1854.1,1408.15C1849.91,1407.92 1845.73,1407.58 1841.56,1407.14C1836.33,1406.58 1831.12,1405.87 1825.93,1405.02C1819.19,1403.92 1812.49,1402.59 1805.84,1401.07L1805.32,1400.95C1805.32,1453.31 1804.73,1505.67 1805.33,1558.03C1805.33,1558.19 1805.33,1558.35 1805.34,1558.51C1805.39,1559.38 1805.54,1560.23 1805.81,1561.06C1806.35,1562.7 1807.37,1564.14 1808.54,1565.39C1809.34,1566.26 1810.22,1567.05 1811.15,1567.78C1812.16,1568.59 1813.22,1569.33 1814.31,1570.03C1815.14,1570.57 1815.99,1571.07 1816.86,1571.56C1818.05,1572.23 1819.26,1572.86 1820.49,1573.46C1822.11,1574.26 1823.77,1575 1825.44,1575.7C1827.58,1576.61 1829.74,1577.45 1831.92,1578.25C1834.81,1579.32 1837.72,1580.31 1840.64,1581.26C1844.15,1582.4 1847.68,1583.48 1851.21,1584.54C1855.92,1585.96 1860.64,1587.34 1865.36,1588.74C1866.57,1589.1 1867.78,1589.46 1868.98,1589.83C1876.92,1592.23 1884.83,1594.72 1892.59,1597.65C1894.98,1598.55 1897.34,1599.49 1899.69,1600.47L1899.87,1600.55C1900.24,1600.04 1900.62,1599.54 1901,1599.04C1901.35,1598.58 1901.7,1598.12 1902.06,1597.66C1903.6,1595.66 1905.16,1593.69 1906.75,1591.73C1909.96,1587.77 1913.25,1583.87 1916.56,1579.98C1918.86,1577.28 1921.17,1574.57 1923.47,1571.86C1926.65,1568.11 1929.82,1564.35 1932.91,1560.53C1935.23,1557.67 1937.51,1554.79 1939.72,1551.86C1941.44,1549.59 1943.12,1547.29 1944.75,1544.96C1946.02,1543.13 1947.27,1541.29 1948.47,1539.41C1949.46,1537.88 1950.42,1536.34 1951.35,1534.77C1952.08,1533.54 1952.79,1532.3 1953.48,1531.05C1957.75,1523.31 1961.22,1515.06 1963.07,1506.4C1963.42,1504.74 1963.72,1503.06 1963.95,1501.38C1964.22,1499.37 1964.4,1497.35 1964.49,1495.32C1964.52,1494.51 1964.54,1493.69 1964.54,1492.87L1964.54,1492.61L1964.54,1371.41C1964.45,1371.51 1964.36,1371.61 1964.27,1371.71ZM1715.63,1496.04C1715.32,1497.99 1714.99,1499.92 1714.63,1501.86C1714.52,1502.43 1714.42,1502.98 1714.31,1503.56C1714.22,1504.03 1714.13,1504.5 1714.03,1504.97C1713.95,1505.34 1713.87,1505.7 1713.79,1506.07C1713.67,1506.61 1713.54,1507.16 1713.41,1507.71C1712.44,1511.91 1711.33,1516.09 1710.07,1520.22C1709.36,1522.52 1708.6,1524.81 1707.78,1527.08C1707.69,1527.33 1707.59,1527.57 1707.49,1527.82C1707.31,1528.28 1707.12,1528.74 1706.94,1529.2C1706.38,1530.56 1705.81,1531.9 1705.21,1533.23C1704.49,1534.86 1703.72,1536.46 1702.91,1538.05C1702.65,1538.57 1702.38,1539.09 1702.11,1539.6C1701.99,1539.82 1701.88,1540.04 1701.76,1540.26C1700.81,1541.92 1699.81,1543.56 1698.76,1545.16C1696.96,1547.91 1694.99,1550.57 1692.84,1553.06C1692.7,1553.23 1692.54,1553.39 1692.39,1553.55C1692.17,1553.79 1691.94,1554.02 1691.72,1554.26C1691.05,1554.95 1690.37,1555.63 1689.67,1556.29C1687.83,1558.04 1685.88,1559.68 1683.83,1561.18C1682.81,1561.93 1681.76,1562.63 1680.69,1563.31L1680.58,1563.38C1679.07,1564.25 1677.52,1565.05 1675.92,1565.77C1675.45,1565.99 1674.96,1566.2 1674.48,1566.4C1674.28,1566.48 1674.09,1566.56 1673.89,1566.63C1673.78,1566.68 1673.67,1566.73 1673.55,1566.77C1671.98,1567.33 1670.38,1567.81 1668.76,1568.2C1668.24,1568.33 1667.73,1568.45 1667.21,1568.56C1667.11,1568.58 1667,1568.6 1666.9,1568.62C1666.79,1568.64 1666.68,1568.67 1666.57,1568.69C1665.01,1568.94 1663.44,1569.12 1661.86,1569.22C1661.33,1569.25 1660.8,1569.28 1660.27,1569.3C1660.09,1569.3 1659.81,1569.31 1659.63,1569.31C1658.57,1569.3 1657.51,1569.27 1656.44,1569.19C1655.59,1569.13 1654.74,1569.05 1653.9,1568.95C1653.58,1568.91 1653.26,1568.87 1652.94,1568.83C1652.82,1568.81 1652.7,1568.8 1652.58,1568.78C1649.3,1568.2 1646.07,1567.3 1642.95,1566.13C1641.82,1565.71 1640.7,1565.25 1639.59,1564.77L1639.37,1564.67C1636.7,1563.38 1634.13,1561.89 1631.65,1560.27C1630.87,1559.76 1630.11,1559.24 1629.35,1558.7C1629.06,1558.5 1628.78,1558.29 1628.49,1558.09C1628.38,1558.01 1628.27,1557.93 1628.17,1557.85C1627.52,1557.35 1626.89,1556.84 1626.26,1556.32C1624.95,1555.24 1623.67,1554.12 1622.42,1552.97C1621.69,1552.3 1620.96,1551.62 1620.25,1550.92C1619.83,1550.51 1619.4,1550.09 1618.98,1549.67C1618.78,1549.46 1618.59,1549.24 1618.39,1549.03C1618.04,1548.65 1617.69,1548.27 1617.35,1547.88C1616.3,1546.71 1615.27,1545.51 1614.26,1544.3C1611.15,1540.55 1608.24,1536.62 1605.49,1532.59C1605.4,1532.46 1605.32,1532.33 1605.24,1532.2C1605,1531.83 1604.76,1531.45 1604.53,1531.08C1603.88,1530.06 1603.25,1529.03 1602.63,1528.01C1600.72,1524.85 1598.89,1521.65 1597.14,1518.4L1597.02,1518.17C1597.67,1518.64 1598.32,1519.12 1598.98,1519.59C1599.5,1519.95 1600.01,1520.32 1600.53,1520.68C1602.29,1521.91 1604.06,1523.12 1605.86,1524.3C1607.44,1525.34 1609.03,1526.35 1610.64,1527.34C1610.76,1527.41 1610.88,1527.5 1611,1527.57C1611.35,1527.8 1611.7,1528.03 1612.05,1528.25C1615.45,1530.41 1618.92,1532.47 1622.49,1534.34C1624.24,1535.26 1626.02,1536.13 1627.83,1536.96L1628.13,1537.09C1628.33,1537.18 1628.53,1537.29 1628.73,1537.38C1629.02,1537.53 1629.31,1537.67 1629.61,1537.81C1629.99,1537.99 1630.38,1538.17 1630.77,1538.35C1631.8,1538.81 1632.84,1539.27 1633.89,1539.69C1635.13,1540.19 1636.38,1540.66 1637.64,1541.1C1637.91,1541.2 1638.18,1541.3 1638.45,1541.4C1639.91,1541.93 1641.39,1542.41 1642.89,1542.82C1644.17,1543.17 1645.47,1543.47 1646.78,1543.71C1646.92,1543.74 1647.07,1543.77 1647.21,1543.81C1647.42,1543.85 1647.63,1543.9 1647.85,1543.94C1648.98,1544.17 1650.13,1544.36 1651.29,1544.48C1652.57,1544.62 1653.85,1544.68 1655.14,1544.65C1655.38,1544.66 1655.61,1544.66 1655.85,1544.66C1656.84,1544.67 1657.83,1544.62 1658.82,1544.52C1659.03,1544.51 1659.24,1544.49 1659.45,1544.47C1660.38,1544.39 1661.31,1544.25 1662.22,1544.07C1662.43,1544.04 1662.63,1544.01 1662.84,1543.98C1663.82,1543.81 1664.78,1543.6 1665.73,1543.32C1665.94,1543.27 1666.16,1543.22 1666.38,1543.16C1667.5,1542.87 1668.59,1542.51 1669.67,1542.08C1669.86,1542.02 1670.05,1541.95 1670.24,1541.88C1671.55,1541.41 1672.83,1540.85 1674.07,1540.21C1675.66,1539.4 1677.18,1538.46 1678.66,1537.45C1678.72,1537.4 1678.79,1537.36 1678.85,1537.32C1679.05,1537.2 1679.24,1537.07 1679.44,1536.94C1680.46,1536.27 1681.45,1535.56 1682.43,1534.82C1684.43,1533.3 1686.33,1531.64 1688.16,1529.91C1688.46,1529.64 1688.75,1529.37 1689.05,1529.09C1691.86,1526.47 1694.5,1523.66 1697,1520.74C1697.3,1520.41 1697.59,1520.08 1697.89,1519.75C1702.42,1514.58 1706.56,1509.09 1710.44,1503.42C1710.72,1503.04 1710.99,1502.65 1711.26,1502.27C1711.92,1501.33 1712.57,1500.39 1713.22,1499.44C1714,1498.3 1714.76,1497.15 1715.52,1496L1715.67,1495.78C1715.66,1495.87 1715.65,1495.95 1715.63,1496.04ZM1906.53,1523.31C1907.22,1523.32 1907.9,1523.34 1908.59,1523.37L1908.69,1523.37C1911.16,1523.59 1913.62,1523.97 1916.03,1524.54C1916.4,1524.63 1916.77,1524.73 1917.14,1524.82C1917.27,1524.86 1917.41,1524.89 1917.54,1524.93C1918.84,1525.33 1920.12,1525.78 1921.38,1526.29C1922.91,1526.92 1924.4,1527.64 1925.84,1528.46C1925.95,1528.53 1926.06,1528.6 1926.17,1528.67C1926.37,1528.79 1926.56,1528.92 1926.76,1529.04C1927.43,1529.48 1928.08,1529.94 1928.71,1530.43C1931.06,1532.24 1933.15,1534.43 1934.62,1537.02C1935.03,1537.73 1935.39,1538.48 1935.69,1539.24C1935.79,1539.48 1935.87,1539.72 1935.95,1539.96C1935.99,1540.05 1936.02,1540.16 1936.05,1540.25C1936.41,1541.5 1936.62,1542.79 1936.64,1544.09C1936.65,1544.63 1936.63,1545.17 1936.58,1545.71C1936.54,1546.04 1936.5,1546.38 1936.43,1546.71L1936.42,1546.72L1935.32,1548.92L1933.58,1549.9L1933.57,1549.9C1933.57,1549.9 1933.56,1549.9 1933.56,1549.9L1931.83,1549.09L1930.41,1547.01C1930.39,1546.95 1930.37,1546.9 1930.35,1546.84L1930.33,1546.81L1930.34,1546.84L1930.3,1546.75L1930.26,1546.65L1930.26,1546.68L1930.22,1546.59L1930.18,1546.5L1930.18,1546.53L1930.14,1546.44L1930.1,1546.35L1930.1,1546.39L1930.06,1546.3L1930.01,1546.21L1930.02,1546.25L1929.97,1546.16L1929.93,1546.07L1929.93,1546.11L1929.89,1546.02L1929.84,1545.94L1929.85,1545.97L1929.8,1545.89L1929.75,1545.81L1929.76,1545.84L1929.71,1545.76L1929.66,1545.68L1929.67,1545.71L1929.62,1545.63L1929.57,1545.56L1929.58,1545.59L1929.52,1545.51L1929.47,1545.44L1929.48,1545.47L1929.43,1545.4L1929.37,1545.32L1929.38,1545.36L1929.33,1545.28L1929.28,1545.21L1929.29,1545.24L1929.23,1545.17L1929.17,1545.1L1929.19,1545.14L1929.13,1545.06L1929.07,1544.99L1929.09,1545.03L1929.03,1544.96L1928.97,1544.89L1928.98,1544.93L1928.92,1544.86L1928.86,1544.79L1928.88,1544.83L1928.82,1544.76L1928.76,1544.69L1928.77,1544.73L1928.71,1544.67L1928.65,1544.6L1928.66,1544.64L1928.6,1544.58L1928.54,1544.51L1928.56,1544.55L1928.49,1544.49L1928.42,1544.42L1928.44,1544.46C1928.38,1544.4 1928.38,1544.4 1928.31,1544.34L1928.31,1544.34L1928.33,1544.38L1928.27,1544.32L1928.2,1544.25L1928.22,1544.29L1928.16,1544.23L1928.09,1544.17L1928.11,1544.21L1928.05,1544.15L1927.98,1544.09L1928,1544.13L1927.93,1544.07L1927.86,1544.01L1927.89,1544.05L1927.82,1543.99L1927.75,1543.94L1927.77,1543.97L1927.7,1543.92L1927.63,1543.86L1927.65,1543.9L1927.58,1543.84L1927.51,1543.79L1927.53,1543.83L1927.46,1543.77L1927.39,1543.72L1927.41,1543.76L1927.34,1543.7L1927.26,1543.65L1927.29,1543.69L1927.22,1543.64L1927.14,1543.59L1927.17,1543.62L1927.09,1543.57L1927.01,1543.52L1927.04,1543.56L1926.96,1543.51C1925.96,1543.02 1924.88,1542.72 1923.78,1542.54C1923.49,1542.49 1923.2,1542.45 1922.91,1542.42C1922.73,1542.4 1922.55,1542.38 1922.37,1542.37L1922.18,1542.36C1921.92,1542.34 1921.67,1542.33 1921.42,1542.33C1921.25,1542.32 1921.2,1542.32 1921.03,1542.32C1920.96,1542.32 1920.88,1542.32 1920.81,1542.32C1920.62,1542.32 1920.43,1542.31 1920.24,1542.31C1919.18,1542.31 1918.12,1542.38 1917.07,1542.51C1916.69,1542.56 1916.32,1542.62 1915.95,1542.68C1915.8,1542.71 1915.64,1542.74 1915.5,1542.76C1915.27,1542.8 1915.27,1542.8 1915.04,1542.83C1914.34,1542.95 1913.64,1543.09 1912.94,1543.25C1912,1543.48 1911.07,1543.75 1910.14,1544.06C1909.96,1544.1 1909.78,1544.15 1909.6,1544.2C1908.87,1544.42 1908.14,1544.65 1907.42,1544.91C1906.69,1545.18 1905.98,1545.47 1905.27,1545.78C1905.1,1545.84 1904.93,1545.9 1904.76,1545.97C1904.21,1546.17 1903.66,1546.39 1903.12,1546.63C1902.93,1546.69 1902.74,1546.76 1902.56,1546.83C1902.14,1546.99 1901.73,1547.15 1901.32,1547.32L1901.19,1547.37C1900.98,1547.44 1900.77,1547.51 1900.57,1547.58C1900.32,1547.67 1900.32,1547.67 1900.06,1547.76C1899.82,1547.85 1899.57,1547.95 1899.32,1548.04C1899.14,1548.1 1898.97,1548.16 1898.79,1548.22C1898.36,1548.37 1897.93,1548.53 1897.5,1548.69L1897.39,1548.74C1897.11,1548.82 1896.84,1548.91 1896.57,1549C1896.3,1549.09 1896.03,1549.19 1895.77,1549.29C1894.96,1549.58 1894.16,1549.91 1893.37,1550.27C1893.14,1550.36 1892.9,1550.44 1892.67,1550.54C1891.5,1551 1890.36,1551.52 1889.25,1552.11C1889.04,1552.21 1888.82,1552.32 1888.61,1552.42C1887.43,1553 1886.29,1553.64 1885.19,1554.35C1884.96,1554.47 1884.74,1554.6 1884.52,1554.73C1883.8,1555.16 1883.09,1555.62 1882.4,1556.1C1880.79,1557.23 1879.28,1558.48 1877.87,1559.84C1877.67,1560.01 1877.48,1560.19 1877.29,1560.36C1876.49,1561.1 1875.73,1561.86 1874.99,1562.66C1874.21,1563.5 1873.46,1564.38 1872.74,1565.28C1872.69,1565.34 1872.64,1565.4 1872.59,1565.47L1872.59,1565.48L1870.65,1567.03L1868.75,1567.3L1868.73,1567.29L1867.41,1565.88L1866.92,1563.45C1866.94,1562.92 1866.98,1562.4 1867.02,1561.87C1867.08,1561.09 1867.16,1560.31 1867.25,1559.54C1867.39,1558.42 1867.56,1557.32 1867.77,1556.22C1867.88,1555.65 1868,1555.08 1868.13,1554.52C1868.15,1554.42 1868.18,1554.31 1868.21,1554.21C1868.28,1553.97 1868.34,1553.72 1868.41,1553.48C1868.64,1552.67 1868.89,1551.86 1869.16,1551.06C1869.78,1549.24 1870.49,1547.46 1871.31,1545.72C1871.7,1544.89 1872.11,1544.08 1872.54,1543.28L1872.58,1543.19C1873.27,1542.02 1874.01,1540.88 1874.79,1539.77C1875.3,1539.04 1875.83,1538.32 1876.38,1537.61L1876.45,1537.52C1877.51,1536.27 1878.63,1535.06 1879.8,1533.9C1880.13,1533.57 1880.48,1533.24 1880.83,1532.91C1880.94,1532.8 1881.06,1532.69 1881.17,1532.58C1881.24,1532.53 1881.29,1532.47 1881.36,1532.42C1882.56,1531.42 1883.8,1530.47 1885.08,1529.58C1885.53,1529.26 1885.98,1528.96 1886.44,1528.66C1886.51,1528.61 1886.91,1528.35 1887.04,1528.27C1887.23,1528.15 1887.42,1528.05 1887.61,1527.94C1887.88,1527.79 1888.14,1527.64 1888.41,1527.5C1888.82,1527.28 1889.22,1527.06 1889.63,1526.86C1889.77,1526.78 1889.91,1526.7 1890.06,1526.64C1891.01,1526.2 1891.97,1525.8 1892.94,1525.41L1893.13,1525.34C1894.19,1524.99 1895.26,1524.67 1896.34,1524.37L1896.46,1524.34C1897.28,1524.16 1898.1,1523.99 1898.92,1523.85C1899.2,1523.8 1899.49,1523.75 1899.77,1523.7C1899.93,1523.68 1900.08,1523.65 1900.24,1523.63C1901.5,1523.49 1902.76,1523.4 1904.03,1523.35C1904.59,1523.33 1905.14,1523.32 1905.7,1523.31C1906.12,1523.31 1906.12,1523.31 1906.53,1523.31ZM1869.9,1461.16C1871.63,1461.76 1871.65,1461.77 1873.03,1462.99L1874.19,1466.61C1874.13,1467.85 1874.04,1469.08 1873.91,1470.31C1873.8,1471.46 1873.65,1472.61 1873.48,1473.75C1873.42,1474.09 1873.36,1474.42 1873.3,1474.75C1873.21,1475.26 1873.11,1475.76 1873,1476.27C1872.69,1477.72 1872.32,1479.16 1871.87,1480.58C1871.67,1481.22 1871.45,1481.85 1871.22,1482.48C1871.19,1482.57 1871.16,1482.66 1871.12,1482.75C1870.64,1483.95 1870.11,1485.13 1869.5,1486.27C1869.31,1486.63 1869.11,1486.99 1868.9,1487.34C1868.69,1487.69 1868.48,1488.03 1868.25,1488.37C1867.76,1489.1 1867.23,1489.82 1866.67,1490.51C1866.34,1490.9 1866.01,1491.29 1865.65,1491.66C1865.52,1491.8 1865.39,1491.94 1865.25,1492.07C1865.06,1492.25 1864.87,1492.43 1864.68,1492.61C1863.84,1493.38 1862.95,1494.08 1862,1494.71C1861.82,1494.83 1861.63,1494.95 1861.44,1495.07C1861.36,1495.12 1861.15,1495.24 1861.11,1495.26C1860.81,1495.43 1860.5,1495.59 1860.18,1495.74C1859.48,1496.09 1858.76,1496.39 1858.02,1496.66C1857.64,1496.8 1857.25,1496.92 1856.85,1497.04C1856.74,1497.07 1856.63,1497.09 1856.53,1497.12C1856.36,1497.15 1856.19,1497.19 1856.02,1497.23C1855.5,1497.33 1854.99,1497.41 1854.47,1497.48C1853.29,1497.63 1852.09,1497.68 1850.89,1497.63C1850.69,1497.62 1850.5,1497.6 1850.3,1497.58C1850.04,1497.56 1849.78,1497.53 1849.51,1497.49C1848.55,1497.37 1847.59,1497.18 1846.65,1496.95C1845.98,1496.78 1845.32,1496.6 1844.67,1496.38C1844.29,1496.25 1843.92,1496.1 1843.54,1495.96C1842.76,1495.65 1842,1495.31 1841.24,1494.94C1840.5,1494.58 1839.77,1494.2 1839.05,1493.79C1838.76,1493.62 1838.47,1493.44 1838.18,1493.26C1837.58,1492.89 1836.99,1492.51 1836.41,1492.11C1835.9,1491.75 1835.39,1491.39 1834.89,1491.02C1834.69,1490.87 1834.48,1490.72 1834.28,1490.56C1833.8,1490.19 1833.34,1489.81 1832.87,1489.42C1831.65,1488.4 1830.48,1487.34 1829.33,1486.24C1828.9,1485.82 1828.48,1485.41 1828.06,1484.98C1827.88,1484.8 1827.69,1484.62 1827.52,1484.43C1826.69,1483.57 1825.89,1482.7 1825.1,1481.81L1825.01,1481.7L1824.88,1480.91L1825.68,1480.82C1826.02,1480.98 1826.36,1481.15 1826.7,1481.31C1827.04,1481.46 1827.37,1481.62 1827.71,1481.77C1828.13,1481.96 1828.56,1482.15 1828.99,1482.34C1829.43,1482.53 1829.87,1482.73 1830.31,1482.92C1831.13,1483.27 1831.96,1483.61 1832.79,1483.93C1833.76,1484.3 1834.75,1484.65 1835.74,1484.97C1836.16,1485.11 1836.6,1485.24 1837.03,1485.38C1837.34,1485.47 1837.64,1485.57 1837.95,1485.65C1838.47,1485.81 1839,1485.95 1839.53,1486.08C1840.03,1486.21 1840.53,1486.32 1841.03,1486.43C1841.31,1486.49 1841.59,1486.54 1841.86,1486.59C1842.22,1486.66 1842.57,1486.73 1842.93,1486.78C1843.65,1486.9 1844.37,1486.99 1845.1,1487.05C1845.44,1487.08 1845.77,1487.09 1846.11,1487.11C1846.26,1487.11 1846.41,1487.11 1846.57,1487.11C1846.79,1487.12 1847.02,1487.13 1847.24,1487.13C1847.82,1487.13 1848.39,1487.1 1848.96,1487.04C1849.32,1487 1849.68,1486.95 1850.03,1486.88C1850.13,1486.86 1850.22,1486.84 1850.32,1486.82C1850.38,1486.81 1850.44,1486.79 1850.5,1486.78C1850.8,1486.72 1851.1,1486.66 1851.39,1486.58C1852.03,1486.41 1852.65,1486.18 1853.23,1485.88C1853.33,1485.84 1853.42,1485.8 1853.51,1485.76C1853.88,1485.59 1854.23,1485.41 1854.57,1485.19C1854.69,1485.11 1854.82,1485.03 1854.93,1484.95C1854.98,1484.92 1855.02,1484.89 1855.07,1484.86C1855.17,1484.78 1855.28,1484.71 1855.39,1484.64C1855.61,1484.48 1855.82,1484.32 1856.03,1484.15C1856.24,1483.96 1856.45,1483.77 1856.65,1483.58C1856.75,1483.48 1856.84,1483.38 1856.93,1483.29C1857.05,1483.17 1857.17,1483.05 1857.29,1482.92C1857.54,1482.65 1857.79,1482.36 1858.02,1482.07C1858.29,1481.73 1858.54,1481.37 1858.79,1481C1858.89,1480.85 1859,1480.69 1859.11,1480.53C1859.36,1480.13 1859.61,1479.73 1859.83,1479.32C1859.99,1479.04 1860.13,1478.77 1860.27,1478.49C1860.34,1478.36 1860.4,1478.23 1860.47,1478.1C1860.61,1477.81 1860.75,1477.52 1860.89,1477.23C1861.13,1476.7 1861.36,1476.18 1861.58,1475.64C1861.93,1474.77 1862.24,1473.88 1862.53,1472.98C1862.69,1472.48 1862.84,1471.97 1862.99,1471.46C1863.15,1470.88 1863.32,1470.3 1863.47,1469.72C1863.84,1468.31 1864.15,1466.89 1864.42,1465.46L1864.43,1465.45L1866.42,1462.2L1869.88,1461.16C1869.88,1461.16 1869.89,1461.16 1869.9,1461.16ZM1600.51,1448.53C1601.68,1448.54 1602.86,1448.6 1604.03,1448.71C1605.4,1448.84 1606.77,1449.04 1608.13,1449.31C1608.41,1449.36 1608.69,1449.42 1608.97,1449.48C1609.43,1449.59 1609.89,1449.7 1610.35,1449.81C1612.23,1450.29 1614.07,1450.9 1615.88,1451.6C1615.98,1451.64 1616.08,1451.68 1616.18,1451.72L1616.18,1451.72L1618.55,1453.36C1620.05,1455.7 1620.07,1455.73 1620.59,1458.46L1620,1461.28L1619.99,1461.3L1618.35,1463.67C1616.01,1465.17 1615.98,1465.18 1613.25,1465.7L1610.43,1465.12C1610.35,1465.08 1610.26,1465.04 1610.18,1465C1610,1464.91 1609.81,1464.83 1609.63,1464.75C1609.44,1464.66 1609.25,1464.57 1609.06,1464.49C1608.25,1464.14 1607.44,1463.83 1606.61,1463.54C1606.06,1463.35 1605.5,1463.18 1604.94,1463.03C1604,1462.76 1603.04,1462.53 1602.06,1462.36C1601.18,1462.2 1600.29,1462.09 1599.4,1462.02C1599.1,1461.99 1598.81,1461.98 1598.51,1461.96C1598.38,1461.96 1598.25,1461.96 1598.12,1461.95C1597.25,1461.91 1596.38,1461.91 1595.5,1461.96C1593.99,1462.03 1592.5,1462.24 1591.02,1462.54C1590.83,1462.58 1590.65,1462.61 1590.46,1462.65C1590.15,1462.71 1589.85,1462.78 1589.54,1462.85C1588.93,1462.99 1588.33,1463.15 1587.73,1463.32C1587.65,1463.34 1587.57,1463.36 1587.49,1463.38C1587.24,1463.45 1586.98,1463.52 1586.73,1463.59C1586.1,1463.78 1585.47,1463.98 1584.84,1464.19C1584.57,1464.28 1584.29,1464.36 1584.02,1464.45C1583.41,1464.64 1582.81,1464.85 1582.22,1465.07C1582.02,1465.14 1581.81,1465.22 1581.61,1465.3C1581.48,1465.35 1581.34,1465.4 1581.21,1465.45C1580.93,1465.55 1580.65,1465.65 1580.38,1465.76C1579.68,1466.03 1578.98,1466.31 1578.29,1466.6C1578.01,1466.72 1577.73,1466.85 1577.44,1466.97C1577.3,1467.03 1577.16,1467.1 1577.02,1467.16C1576.73,1467.28 1576.44,1467.41 1576.15,1467.53C1574.97,1468.06 1573.81,1468.61 1572.65,1469.2C1571.33,1469.88 1570.02,1470.6 1568.73,1471.34C1568.4,1471.52 1568.06,1471.71 1567.73,1471.9C1566.64,1472.51 1565.57,1473.14 1564.51,1473.79C1562.82,1474.82 1561.15,1475.9 1559.51,1477L1559.38,1477.08C1559.68,1476.6 1559.98,1476.12 1560.29,1475.65C1560.79,1474.87 1561.3,1474.09 1561.82,1473.32C1562.64,1472.1 1563.48,1470.89 1564.34,1469.7C1564.66,1469.26 1564.99,1468.82 1565.32,1468.38C1565.45,1468.21 1565.58,1468.03 1565.71,1467.86C1567.12,1466.07 1568.6,1464.33 1570.15,1462.65C1570.63,1462.14 1571.12,1461.63 1571.61,1461.12C1571.88,1460.84 1572.16,1460.55 1572.45,1460.28C1572.6,1460.13 1572.76,1459.98 1572.92,1459.84C1573.3,1459.48 1573.68,1459.13 1574.08,1458.78C1574.53,1458.38 1574.99,1457.98 1575.45,1457.6C1575.65,1457.43 1575.85,1457.26 1576.05,1457.1C1576.13,1457.04 1576.2,1456.98 1576.28,1456.91C1576.75,1456.56 1577.22,1456.2 1577.7,1455.86C1578.19,1455.51 1578.68,1455.16 1579.18,1454.83C1579.4,1454.68 1579.61,1454.54 1579.83,1454.4C1579.91,1454.35 1579.99,1454.29 1580.08,1454.24C1580.8,1453.81 1581.53,1453.4 1582.27,1453C1582.5,1452.88 1582.73,1452.76 1582.95,1452.65C1583.13,1452.56 1583.3,1452.47 1583.48,1452.38C1584.38,1451.95 1585.3,1451.56 1586.23,1451.19C1586.55,1451.07 1586.87,1450.95 1587.19,1450.83C1587.33,1450.78 1587.54,1450.7 1587.68,1450.65C1588.57,1450.36 1589.47,1450.08 1590.38,1449.84C1592.06,1449.4 1593.76,1449.06 1595.48,1448.84C1596.01,1448.77 1596.53,1448.71 1597.05,1448.66C1597.32,1448.64 1597.58,1448.61 1597.84,1448.6C1598.11,1448.58 1598.37,1448.57 1598.64,1448.56C1598.9,1448.55 1599.17,1448.54 1599.44,1448.54C1599.8,1448.53 1600.15,1448.53 1600.51,1448.53ZM1912.6,1450.95C1912.8,1451.12 1913,1451.29 1913.2,1451.45C1913.44,1451.65 1913.68,1451.84 1913.93,1452.04C1914.46,1452.45 1915,1452.85 1915.55,1453.24C1915.92,1453.5 1916.29,1453.76 1916.67,1454.01C1916.98,1454.21 1917.29,1454.42 1917.6,1454.62C1918.32,1455.07 1919.05,1455.49 1919.79,1455.89C1920.23,1456.11 1920.66,1456.33 1921.1,1456.53C1921.35,1456.64 1921.6,1456.75 1921.84,1456.86C1922.35,1457.09 1922.87,1457.3 1923.39,1457.5C1923.67,1457.6 1923.96,1457.7 1924.24,1457.79C1924.35,1457.83 1924.46,1457.86 1924.57,1457.9C1925.06,1458.06 1925.55,1458.21 1926.05,1458.34C1926.33,1458.41 1926.61,1458.48 1926.88,1458.54C1927,1458.56 1927.11,1458.58 1927.23,1458.61C1927.34,1458.63 1927.45,1458.66 1927.57,1458.68C1927.75,1458.72 1927.93,1458.76 1928.12,1458.79C1928.65,1458.89 1929.18,1458.96 1929.72,1459.01C1929.87,1459.04 1930.02,1459.06 1930.17,1459.07C1930.77,1459.15 1931.37,1459.19 1931.97,1459.2C1932.11,1459.22 1932.26,1459.23 1932.4,1459.24C1933.22,1459.3 1934.05,1459.31 1934.88,1459.26C1935.04,1459.26 1935.21,1459.26 1935.38,1459.25C1936.03,1459.23 1936.68,1459.17 1937.32,1459.08C1937.55,1459.05 1937.77,1459.02 1938,1458.98C1938.14,1458.95 1938.28,1458.93 1938.41,1458.9C1938.62,1458.87 1938.83,1458.83 1939.04,1458.79C1939.4,1458.73 1939.77,1458.65 1940.12,1458.56C1940.63,1458.44 1941.12,1458.3 1941.62,1458.15C1941.86,1458.08 1942.09,1458 1942.32,1457.92C1942.48,1457.87 1942.63,1457.82 1942.78,1457.77C1943.19,1457.64 1943.59,1457.49 1943.99,1457.34C1944.75,1457.05 1945.49,1456.72 1946.22,1456.38C1946.54,1456.23 1946.85,1456.09 1947.16,1455.94C1947.68,1455.68 1948.2,1455.41 1948.71,1455.14C1949.57,1454.67 1950.42,1454.17 1951.24,1453.65C1951.69,1453.37 1952.12,1453.08 1952.56,1452.79C1952.84,1452.61 1953.12,1452.42 1953.39,1452.24C1953.94,1451.86 1954.49,1451.47 1955.02,1451.08L1955.12,1451.01L1955.91,1450.93L1955.96,1451.73C1955.68,1452.28 1955.39,1452.83 1955.09,1453.37C1954.87,1453.76 1954.66,1454.15 1954.43,1454.54C1953.85,1455.52 1953.23,1456.47 1952.59,1457.4C1952,1458.25 1951.39,1459.08 1950.75,1459.89C1950.45,1460.27 1950.14,1460.65 1949.83,1461.01C1949.14,1461.8 1948.42,1462.55 1947.67,1463.28C1947.36,1463.58 1947.04,1463.88 1946.72,1464.17C1946.57,1464.3 1946.42,1464.44 1946.27,1464.57C1945.52,1465.21 1944.73,1465.81 1943.92,1466.38C1943.52,1466.67 1943.1,1466.95 1942.68,1467.22C1942.43,1467.38 1942.18,1467.53 1941.93,1467.68C1941.62,1467.86 1941.29,1468.04 1940.97,1468.2C1940.39,1468.51 1939.81,1468.79 1939.21,1469.05C1938.77,1469.25 1938.32,1469.43 1937.87,1469.61C1937.72,1469.66 1937.57,1469.72 1937.42,1469.78C1937.33,1469.81 1937.23,1469.85 1937.14,1469.88C1936.78,1469.99 1936.41,1470.1 1936.05,1470.2C1935.36,1470.38 1934.66,1470.55 1933.96,1470.68C1933.65,1470.74 1933.34,1470.8 1933.03,1470.85C1932.95,1470.86 1932.63,1470.91 1932.56,1470.92C1931.93,1470.97 1931.31,1471.01 1930.69,1471.03C1930.14,1471.04 1929.6,1471.04 1929.05,1471.02L1928.82,1471.02C1928.59,1471.01 1928.36,1470.98 1928.12,1470.96C1927.74,1470.92 1927.36,1470.88 1926.98,1470.83C1926.44,1470.76 1925.91,1470.67 1925.38,1470.57C1925.12,1470.52 1924.86,1470.47 1924.6,1470.41C1924.34,1470.35 1924.08,1470.28 1923.82,1470.21C1923.38,1470.09 1922.94,1469.96 1922.5,1469.83C1921.8,1469.6 1921.1,1469.36 1920.42,1469.09C1920.26,1469.03 1920.1,1468.96 1919.93,1468.89C1919.66,1468.77 1919.38,1468.64 1919.1,1468.52C1918.22,1468.11 1917.35,1467.66 1916.5,1467.18C1916.36,1467.11 1916.22,1467.02 1916.09,1466.94C1915.83,1466.78 1915.58,1466.62 1915.32,1466.46C1914.43,1465.89 1913.56,1465.29 1912.71,1464.65C1912.11,1464.19 1911.52,1463.72 1910.94,1463.23C1910.62,1462.97 1910.31,1462.7 1910.01,1462.43C1909.46,1461.94 1908.94,1461.43 1908.42,1460.91C1907.5,1459.99 1906.61,1459.04 1905.77,1458.05L1905.62,1457.88L1905.62,1457.87L1904.32,1454.28L1905.65,1450.93L1905.66,1450.92L1909.01,1449.63C1910.21,1450.07 1911.4,1450.51 1912.6,1450.95ZM1694.05,1424.68C1694.35,1424.68 1694.65,1424.68 1694.95,1424.69C1695.04,1424.7 1695.12,1424.7 1695.21,1424.71C1695.36,1424.72 1695.52,1424.73 1695.67,1424.74C1696.13,1424.78 1696.59,1424.82 1697.05,1424.87C1697.96,1424.97 1698.86,1425.1 1699.76,1425.26C1699.85,1425.27 1699.94,1425.29 1700.03,1425.31C1700.26,1425.36 1700.49,1425.41 1700.72,1425.46C1701.33,1425.59 1701.93,1425.74 1702.54,1425.89C1703.91,1426.25 1705.27,1426.66 1706.61,1427.12C1707.29,1427.35 1707.97,1427.6 1708.64,1427.85L1708.83,1427.92C1711.97,1429.19 1715.01,1430.68 1717.99,1432.27L1718.11,1432.34C1717.6,1432.33 1717.09,1432.31 1716.57,1432.29C1716.24,1432.29 1715.9,1432.28 1715.56,1432.27C1714.58,1432.26 1713.59,1432.26 1712.6,1432.27C1711.09,1432.3 1709.59,1432.36 1708.09,1432.47C1707.72,1432.49 1707.36,1432.51 1707,1432.53C1705.42,1432.64 1703.86,1432.8 1702.31,1433.05C1701.71,1433.14 1701.11,1433.25 1700.52,1433.37C1700.32,1433.41 1700.13,1433.45 1699.94,1433.49C1699.86,1433.51 1699.79,1433.53 1699.71,1433.54C1698.92,1433.7 1698.14,1433.88 1697.36,1434.09C1697.07,1434.17 1696.78,1434.25 1696.49,1434.34C1696.31,1434.39 1696.14,1434.45 1695.96,1434.5C1695.64,1434.6 1695.31,1434.7 1694.99,1434.8C1694.28,1435.04 1693.58,1435.3 1692.89,1435.59C1692.71,1435.66 1692.53,1435.73 1692.35,1435.8C1691.97,1435.95 1691.58,1436.12 1691.2,1436.3C1690.99,1436.4 1690.78,1436.5 1690.57,1436.61C1690.41,1436.68 1690.25,1436.76 1690.09,1436.84C1689.78,1436.99 1689.47,1437.16 1689.16,1437.33C1688.94,1437.45 1688.73,1437.58 1688.52,1437.71C1688.38,1437.79 1688.25,1437.88 1688.12,1437.96C1687.83,1438.14 1687.54,1438.33 1687.26,1438.52C1686.72,1438.88 1686.2,1439.28 1685.7,1439.7C1685.18,1440.13 1684.68,1440.59 1684.21,1441.07C1683.95,1441.33 1683.7,1441.6 1683.46,1441.87C1683.26,1442.08 1683.07,1442.29 1682.88,1442.51C1682.46,1442.99 1682.06,1443.48 1681.68,1443.99C1680.97,1444.94 1680.32,1445.94 1679.72,1446.97C1679.36,1447.58 1679.01,1448.2 1678.68,1448.83C1678.19,1449.77 1677.74,1450.73 1677.32,1451.7C1677.28,1451.78 1677.25,1451.86 1677.22,1451.94L1677.21,1451.95L1675.46,1454.24C1673.06,1455.63 1673.03,1455.64 1670.27,1456.04L1667.48,1455.33L1667.47,1455.32L1665.18,1453.58C1663.78,1451.17 1663.77,1451.14 1663.37,1448.38L1664.08,1445.6C1664.16,1445.44 1664.29,1445.21 1664.37,1445.06C1664.56,1444.69 1664.76,1444.34 1664.96,1443.98C1665.49,1443.03 1666.05,1442.09 1666.64,1441.17C1667.07,1440.51 1667.5,1439.85 1667.96,1439.21C1669.08,1437.66 1670.29,1436.17 1671.59,1434.77C1672.13,1434.19 1672.69,1433.63 1673.27,1433.09C1673.6,1432.78 1673.93,1432.47 1674.27,1432.18C1675.86,1430.82 1677.56,1429.6 1679.36,1428.56C1680.35,1427.99 1681.36,1427.47 1682.4,1427.01C1682.47,1426.97 1682.54,1426.94 1682.62,1426.91C1683.57,1426.52 1684.55,1426.16 1685.53,1425.86C1685.94,1425.73 1686.36,1425.61 1686.77,1425.5C1686.97,1425.45 1687.16,1425.41 1687.36,1425.37C1687.81,1425.27 1688.27,1425.17 1688.73,1425.09C1689.12,1425.02 1689.5,1424.96 1689.88,1424.9C1690.08,1424.88 1690.28,1424.85 1690.48,1424.82C1690.74,1424.79 1691.01,1424.78 1691.27,1424.76C1691.89,1424.72 1692.51,1424.69 1693.13,1424.68C1693.44,1424.68 1693.74,1424.67 1694.05,1424.68ZM2181.83,1079.17C2184.15,1316.19 2505.12,1132.21 2505.12,1047.97C2505.12,1047.97 2505.12,979.238 2505.12,925.98C2505.12,911.889 2498.31,898.668 2486.83,890.494C2475.35,882.32 2460.62,880.203 2447.31,884.813C2432.77,889.846 2421.21,893.848 2421.21,893.848C2402.24,958.945 2357.52,1055.77 2288.2,1010.35C2249.87,985.23 2273.7,885.085 2342.31,862.347C2342.31,862.347 2504.67,806.147 2575.68,781.569C2583.18,778.971 2591.48,780.164 2597.95,784.772C2604.42,789.379 2608.26,796.831 2608.26,804.774C2608.26,870.038 2608.26,1012.05 2608.26,1090.04C2608.26,1102.47 2614.28,1114.13 2624.4,1121.34C2634.53,1128.55 2647.51,1130.42 2659.26,1126.36C2659.26,1126.36 2659.26,1126.35 2659.26,1126.35L2248.21,1268.64C2147.97,1303.33 2046.35,1267.09 2046.35,1126.07L2046.35,807.118C2046.35,597.301 2608.26,421.45 2608.26,599.646L2608.26,707.027L2474.21,753.429L2474.21,703.123C2474.21,703.123 2474.21,703.123 2474.21,703.123C2492.06,696.943 2503.84,679.892 2503.3,661.007C2502.93,648.126 2502.59,636.223 2502.59,636.223C2499.49,527.401 2177.55,620.467 2178.89,764.239L2181.83,1079.17ZM2705.85,1109.59C2709.78,1108.18 2744.33,1094.8 2768.72,1049.41C2840.65,915.556 2917.71,1036.25 2821.07,1069.7L2705.85,1109.59C2705.61,1109.67 2705.48,1109.71 2705.48,1109.71L2705.85,1109.59Z"/>
            </g>
        </g>
    </g>
</svg>
