<?xml version="1.0" encoding="UTF-8" standalone="no"?>
<svg width="42px" height="36px" viewBox="0 0 42 36" version="1.1" xmlns="http://www.w3.org/2000/svg" xmlns:xlink="http://www.w3.org/1999/xlink">
    <!-- Generator: Sketch 39.1 (31720) - http://www.bohemiancoding.com/sketch -->
    <title>artstation</title>
    <desc>Created with Sketch.</desc>
    <defs></defs>
    <g id="Page-1" stroke="none" stroke-width="1" fill="none" fill-rule="evenodd">
        <g id="project" transform="translate(-281.000000, -3374.000000)" fill="#000000">
            <g id="artstation" transform="translate(278.000000, 3368.000000)">
                <path d="M15.9084291,11.917789 L6.44617219,28.0619372 L25.3707853,28.0619372 L15.9084291,11.917789 Z M3,33.9188929 L6.31185952,39.3752906 C6.31185952,39.3752906 6.89298847,40.4308325 7.50052344,40.9213282 C8.10805833,41.4120212 8.8527853,41.8605256 9.83397406,41.8605256 L33.5011322,41.8605256 L28.7348618,33.9188929 L3,33.9188929 L3,33.9188929 Z M19.3428883,6.02390631 L26.3519742,6.02390631 C26.3519742,6.02390631 28.7348618,5.66822049 29.944075,7.70078212 C31.1531884,9.73344314 43.6642375,30.9596415 43.9622485,31.4326649 C44.2600597,31.9058873 45.0311924,33.8011575 43.8744926,35.9565159 C42.7180915,38.111677 40.5102189,42 40.5102189,42 L19.3428883,6.02390631 Z"></path>
                <rect id="Rectangle-3-Copy" fill-opacity="0" x="0" y="0" width="48" height="48"></rect>
            </g>
        </g>
    </g>
</svg>
