<?xml version="1.0" encoding="UTF-8" standalone="no"?>
<svg width="42px" height="27px" viewBox="0 0 42 27" version="1.1" xmlns="http://www.w3.org/2000/svg" xmlns:xlink="http://www.w3.org/1999/xlink">
    <!-- Generator: Sketch 39.1 (31720) - http://www.bohemiancoding.com/sketch -->
    <title>behance</title>
    <desc>Created with Sketch.</desc>
    <defs></defs>
    <g id="Page-1" stroke="none" stroke-width="1" fill="none" fill-rule="evenodd">
        <g id="project" transform="translate(-102.000000, -3453.000000)" fill="#0000">
            <g id="behance" transform="translate(99.000000, 3442.000000)">
                <path d="M41.4995842,14.4999622 L29.2497165,14.4999622 L29.2497165,11 L41.4995842,11 L41.4995842,14.4999622 L41.4995842,14.4999622 Z M44.5200516,31.9997732 C43.74656,34.2694987 40.96934,37.2497165 35.593398,37.2497165 C30.2139561,37.2497165 25.8565032,34.2239992 25.8565032,27.3185738 C25.8565032,20.4761477 29.9252092,16.9586857 35.4218999,16.9586857 C40.8153416,16.9586857 44.1088061,20.077152 44.8280483,24.704102 C44.9645468,25.5895924 45.0187962,26.7830796 44.9942965,28.4490616 L30.9471982,28.4490616 C31.1746957,34.0682509 37.0423824,34.244999 38.9761115,31.9997732 L44.5200516,31.9997732 L44.5200516,31.9997732 Z M31.0696969,24.9998488 L39.758353,24.9998488 C39.574605,22.2926281 37.7703745,21.1166407 35.4236499,21.1166407 C32.8581776,21.1166407 31.4389429,22.4606262 31.0696969,24.9998488 L31.0696969,24.9998488 Z M14.3153778,37.2287168 L3,37.2287168 L3,11.0367496 L15.1676186,11.0367496 C24.7505151,11.1784981 24.9325131,20.5636467 19.9275672,23.1221191 C25.9842518,25.3270953 26.1872496,37.2287168 14.3153778,37.2287168 L14.3153778,37.2287168 Z M8.24994331,21.4998866 L14.5218756,21.4998866 C18.9108282,21.4998866 19.6073207,16.2499433 13.9758815,16.2499433 L8.24994331,16.2499433 L8.24994331,21.4998866 L8.24994331,21.4998866 Z M14.1841292,26.7498299 L8.24994331,26.7498299 L8.24994331,32.0277729 L14.0966302,32.0277729 C19.4428224,32.0277729 19.115576,26.7498299 14.1841292,26.7498299 L14.1841292,26.7498299 Z" id="Shape"></path>
                <rect id="Rectangle-3-Copy" fill-opacity="0" x="0" y="0" width="48" height="48"></rect>
            </g>
        </g>
    </g>
</svg>
