<?xml version="1.0" encoding="UTF-8" standalone="no"?>
<svg width="36px" height="36px" viewBox="0 0 36 36" version="1.1" xmlns="http://www.w3.org/2000/svg" xmlns:xlink="http://www.w3.org/1999/xlink">
    <!-- Generator: Sketch 39.1 (31720) - http://www.bohemiancoding.com/sketch -->
    <title>dribbble</title>
    <desc>Created with Sketch.</desc>
    <defs></defs>
    <g id="Page-1" stroke="none" stroke-width="1" fill="none" fill-rule="evenodd">
        <g id="project" transform="translate(-105.000000, -3374.000000)" fill="#FFFFFF">
            <g id="dribbble" transform="translate(99.000000, 3368.000000)">
                <path d="M32.5909331,36.7488976 C32.4342918,35.821859 31.6150997,31.3094244 29.5978127,25.7704745 C34.5616511,24.976777 38.860822,26.3377036 39.1783383,26.4414134 C38.4946199,30.7252631 36.0412771,34.4186019 32.5909331,36.7488976 L32.5909331,36.7488976 L32.5909331,36.7488976 Z M24.0010584,39.3733906 C20.2797672,39.3733906 16.8675251,38.0505615 14.2067384,35.8493739 C14.4099488,36.0144629 14.5517728,36.1181727 14.5517728,36.1181727 C14.5517728,36.1181727 17.4983242,29.6923981 26.6152761,26.5154918 C26.6491445,26.5027926 26.6851297,26.4943265 26.7189981,26.4837439 C28.8823426,32.1031219 29.773505,36.8102769 30.0021168,38.1542713 C28.1584054,38.9373861 26.1284177,39.3733906 24.0010584,39.3733906 L24.0010584,39.3733906 L24.0010584,39.3733906 Z M8.62691833,23.9989417 C8.62691833,23.8359692 8.63538543,23.6751132 8.63961898,23.5142572 C8.91268301,23.5206067 16.5076733,23.6920454 24.4222967,21.3236522 C24.862586,22.1850785 25.2838243,23.063437 25.6690774,23.9375625 C25.465867,23.9925922 25.2647733,24.0539714 25.0636797,24.1217003 C16.7680367,26.8012229 12.5598871,34.2640955 12.5598871,34.2640955 C12.5598871,34.2640955 12.5662374,34.2704451 12.5662374,34.2725616 C10.1171282,31.5485919 8.62691833,27.9483803 8.62691833,23.9989417 L8.62691833,23.9989417 L8.62691833,23.9989417 Z M17.4411713,10.0997119 C17.6464985,10.3727438 20.4893279,14.2269387 23.1501147,18.955259 C15.7689187,20.9172791 9.36143941,20.8389676 8.9571353,20.832618 C9.95413653,16.0704333 13.1525842,12.1231113 17.4411713,10.0997119 L17.4411713,10.0997119 L17.4411713,10.0997119 Z M20.3178691,9.07531307 C20.3178691,9.0774296 20.3157523,9.07954612 20.3157523,9.07954612 C20.3157523,9.07954612 20.2967014,9.08377918 20.2691833,9.08801223 C20.2861175,9.08377918 20.3009349,9.08166265 20.3178691,9.07531307 L20.3178691,9.07531307 L20.3178691,9.07531307 Z M34.1531134,12.4659886 C34.1150115,12.5231348 31.9262657,15.8566641 26.1220674,18.0303369 C23.4951491,13.2025398 20.6078673,9.36739373 20.3771388,9.06261391 C21.5392485,8.78111588 22.7521609,8.62872597 24.0010584,8.62872597 C27.8916917,8.62872597 31.4457576,10.0806632 34.1531134,12.4659886 L34.1531134,12.4659886 L34.1531134,12.4659886 Z M39.3688481,23.8465518 C39.1465867,23.7978717 33.9435527,22.6782292 28.6621979,23.3428185 C28.5521256,23.0803692 28.44417,22.8158034 28.3298642,22.5512376 C28.0102311,21.7977541 27.6651967,21.0527368 27.3074616,20.3204186 C33.3783736,17.841966 35.8423002,14.2798518 35.8719351,14.2375213 C38.0268125,16.8556646 39.3328629,20.1997766 39.3688481,23.8465518 L39.3688481,23.8465518 L39.3688481,23.8465518 Z M41.6359146,20.3775648 C41.3988358,19.2219413 41.0432175,18.0811335 40.5838772,16.9932389 C40.1351208,15.9265095 39.5741753,14.8978776 38.9243253,13.9369745 C38.2829423,12.9845376 37.5420709,12.0871303 36.7292291,11.2743841 C35.9142706,10.4595214 35.0188746,9.72085367 34.0642089,9.0774296 C33.1031928,8.42553942 32.0744399,7.86889294 31.0075851,7.41595626 C29.9195625,6.95878652 28.7807373,6.60321007 27.624978,6.36827562 C26.4395837,6.12487507 25.220321,6 24.0010584,6 C22.779679,6 21.5604163,6.12487507 20.375022,6.36827562 C19.2192627,6.60321007 18.0804375,6.95878652 16.9924149,7.41595626 C15.9255601,7.86889294 14.8968072,8.42553942 13.9336744,9.0774296 C12.9811254,9.72085367 12.0857294,10.4595214 11.2707709,11.2743841 C10.4579291,12.0871303 9.71917446,12.9845376 9.07567472,13.9369745 C8.42582466,14.8978776 7.86487917,15.9265095 7.41612277,16.9932389 C6.95466573,18.0811335 6.60116423,19.2219413 6.36408538,20.3775648 C6.12277298,21.5607032 6,22.7798224 6,23.9989417 C6,25.2222941 6.12277298,26.4414134 6.36408538,27.6266682 C6.60116423,28.7822917 6.95466573,29.920983 7.41612277,31.0067611 C7.86487917,32.0734905 8.42582466,33.1063555 9.07567472,34.0672585 C9.71917446,35.0196955 10.4579291,35.9128697 11.2707709,36.7298489 C12.0857294,37.5425951 12.9811254,38.2791463 13.9336744,38.9246869 C14.8968072,39.5744606 15.9255601,40.1332236 16.9924149,40.5840437 C18.0804375,41.0454465 19.2192627,41.3967899 20.375022,41.6317244 C21.5604163,41.8772415 22.779679,42 24.0010584,42 C25.220321,42 26.4395837,41.8772415 27.624978,41.6317244 C28.7807373,41.3967899 29.9195625,41.0454465 31.0075851,40.5840437 C32.0744399,40.1332236 33.1031928,39.5744606 34.0642089,38.9246869 C35.0188746,38.2791463 35.9142706,37.5425951 36.7292291,36.7298489 C37.5420709,35.9128697 38.2829423,35.0196955 38.9243253,34.0672585 C39.5741753,33.1063555 40.1351208,32.0734905 40.5838772,31.0067611 C41.0432175,29.920983 41.3988358,28.7822917 41.6359146,27.6266682 C41.877227,26.4414134 42,25.2222941 42,23.9989417 C42,22.7798224 41.877227,21.5607032 41.6359146,20.3775648 L41.6359146,20.3775648 L41.6359146,20.3775648 Z"></path>
                <rect id="Rectangle-3" fill-opacity="0" x="0" y="0" width="48" height="48"></rect>
            </g>
        </g>
    </g>
</svg>