<?xml version="1.0" encoding="UTF-8" standalone="no"?>
<svg width="28px" height="28px" viewBox="0 0 28 28" version="1.1" xmlns="http://www.w3.org/2000/svg" xmlns:xlink="http://www.w3.org/1999/xlink">
    <!-- Generator: Sketch 39.1 (31720) - http://www.bohemiancoding.com/sketch -->
    <title>dribbble_dark</title>
    <desc>Created with Sketch.</desc>
    <defs></defs>
    <g id="Winter-2018" stroke="none" stroke-width="1" fill="none" fill-rule="evenodd">
        <g id="project-copy" transform="translate(-362.000000, -452.000000)">
            <g id="dribbble_dark" transform="translate(358.000000, 448.000000)">
                <path d="M24.4431999,27.5616732 C24.3257188,26.8663943 23.7113247,23.4820683 22.1983595,19.3278558 C25.9212383,18.7325828 29.1456165,19.7532777 29.3837537,19.83106 C28.8709649,23.0439473 27.0309578,25.8139514 24.4431999,27.5616732 L24.4431999,27.5616732 L24.4431999,27.5616732 Z M18.0007938,29.5300429 C15.2098254,29.5300429 12.6506439,28.5379211 10.6550538,26.8870304 C10.8074616,27.0108472 10.9138296,27.0886295 10.9138296,27.0886295 C10.9138296,27.0886295 13.1237432,22.2692986 19.961457,19.8866188 C19.9868584,19.8770945 20.0138472,19.8707449 20.0392485,19.8628079 C21.6617569,24.0773414 22.3301288,27.6077077 22.5015876,28.6157035 C21.118804,29.2030396 19.5963133,29.5300429 18.0007938,29.5300429 L18.0007938,29.5300429 L18.0007938,29.5300429 Z M6.47018875,17.9992063 C6.47018875,17.8769769 6.47653907,17.7563349 6.47971424,17.6356929 C6.68451226,17.6404551 12.380755,17.769034 18.3167225,15.9927391 C18.6469395,16.6388089 18.9628682,17.2975778 19.2518081,17.9531719 C19.0994002,17.9944441 18.94858,18.0404786 18.7977597,18.0912752 C12.5760275,20.1009172 9.41991533,25.6980716 9.41991533,25.6980716 C9.41991533,25.6980716 9.42467807,25.7028338 9.42467807,25.7044212 C7.58784618,23.6614439 6.47018875,20.9612852 6.47018875,17.9992063 L6.47018875,17.9992063 L6.47018875,17.9992063 Z M13.0808785,7.57478394 C13.2348739,7.77955788 15.3669959,10.670204 17.362586,14.2164442 C11.826689,15.6879593 7.02107956,15.6292257 6.71785147,15.6244635 C7.4656024,12.052825 9.86443817,9.09233347 13.0808785,7.57478394 L13.0808785,7.57478394 L13.0808785,7.57478394 Z M15.2384018,6.8064848 C15.2384018,6.8080722 15.2368143,6.80965959 15.2368143,6.80965959 C15.2368143,6.80965959 15.222526,6.81283438 15.2018875,6.81600917 C15.2145881,6.81283438 15.2257012,6.81124699 15.2384018,6.8064848 L15.2384018,6.8064848 L15.2384018,6.8064848 Z M25.6148351,9.34949145 C25.5862586,9.39235111 23.9446992,11.8924981 19.5915505,13.5227527 C17.6213618,9.90190487 15.4559005,7.0255453 15.2828541,6.79696043 C16.1544364,6.58583691 17.0641207,6.47154448 18.0007938,6.47154448 C20.9187687,6.47154448 23.5843182,7.56049738 25.6148351,9.34949145 L25.6148351,9.34949145 L25.6148351,9.34949145 Z M29.5266361,17.8849139 C29.35994,17.8484038 25.4576645,17.0086719 21.4966484,17.5071139 C21.4140942,17.3102769 21.3331275,17.1118525 21.2473981,16.9134282 C21.0076733,16.3483156 20.7488975,15.7895526 20.4805962,15.240314 C25.0337802,13.3814745 26.8817252,10.7098889 26.9039513,10.678141 C28.5201094,12.6417485 29.4996472,15.1498324 29.5266361,17.8849139 L29.5266361,17.8849139 L29.5266361,17.8849139 Z M31.226936,15.2831736 C31.0491268,14.416456 30.7824131,13.5608501 30.4379079,12.7449292 C30.1013406,11.9448821 29.6806315,11.1734082 29.193244,10.4527309 C28.7122067,9.7384032 28.1565532,9.06534776 27.5469219,8.45578811 C26.9357029,7.84464107 26.2641559,7.29064025 25.5481566,6.8080722 C24.8273946,6.31915457 24.05583,5.9016697 23.2556888,5.56196719 C22.4396719,5.21908989 21.585553,4.95240755 20.7187335,4.77620671 C19.8296878,4.5936563 18.9152408,4.5 18.0007938,4.5 C17.0847592,4.5 16.1703122,4.5936563 15.2812665,4.77620671 C14.414447,4.95240755 13.5603281,5.21908989 12.7443112,5.56196719 C11.94417,5.9016697 11.1726054,6.31915457 10.4502558,6.8080722 C9.73584406,7.29064025 9.06429705,7.84464107 8.45307814,8.45578811 C7.84344682,9.06534776 7.28938084,9.7384032 6.80675604,10.4527309 C6.3193685,11.1734082 5.89865938,11.9448821 5.56209208,12.7449292 C5.21599929,13.5608501 4.95087317,14.416456 4.77306403,15.2831736 C4.59207973,16.1705274 4.5,17.0848668 4.5,17.9992063 C4.5,18.9167206 4.59207973,19.83106 4.77306403,20.7200012 C4.95087317,21.5867188 5.21599929,22.4407373 5.56209208,23.2550708 C5.89865938,24.0551179 6.3193685,24.8297666 6.80675604,25.5504439 C7.28938084,26.2647716 7.84344682,26.9346522 8.45307814,27.5473867 C9.06429705,28.1569463 9.73584406,28.7093598 10.4502558,29.1935152 C11.1726054,29.6808454 11.94417,30.0999177 12.7443112,30.4380328 C13.5603281,30.7840849 14.414447,31.0475925 15.2812665,31.2237933 C16.1703122,31.4079311 17.0847592,31.5 18.0007938,31.5 C18.9152408,31.5 19.8296878,31.4079311 20.7187335,31.2237933 C21.585553,31.0475925 22.4396719,30.7840849 23.2556888,30.4380328 C24.05583,30.0999177 24.8273946,29.6808454 25.5481566,29.1935152 C26.2641559,28.7093598 26.9357029,28.1569463 27.5469219,27.5473867 C28.1565532,26.9346522 28.7122067,26.2647716 29.193244,25.5504439 C29.6806315,24.8297666 30.1013406,24.0551179 30.4379079,23.2550708 C30.7824131,22.4407373 31.0491268,21.5867188 31.226936,20.7200012 C31.4079203,19.83106 31.5,18.9167206 31.5,17.9992063 C31.5,17.0848668 31.4079203,16.1705274 31.226936,15.2831736 L31.226936,15.2831736 L31.226936,15.2831736 Z" id="dribbble" fill="#000000"></path>
                <rect id="Rectangle-3" fill-opacity="0" fill="#FFFFFF" x="0" y="0" width="36" height="36"></rect>
            </g>
        </g>
    </g>
</svg>