<?xml version="1.0" encoding="UTF-8" standalone="no"?>
<svg width="37px" height="36px" viewBox="0 0 37 36" version="1.1" xmlns="http://www.w3.org/2000/svg" xmlns:xlink="http://www.w3.org/1999/xlink">
    <!-- Generator: Sketch 39.1 (31720) - http://www.bohemiancoding.com/sketch -->
    <title>github</title>
    <desc>Created with Sketch.</desc>
    <defs></defs>
    <g id="Page-1" stroke="none" stroke-width="1" fill="none" fill-rule="evenodd">
        <g id="project" transform="translate(-463.000000, -3374.000000)" fill="#FFFFFF">
            <g id="github" transform="translate(457.000000, 3368.000000)">
                <rect id="Rectangle-3-Copy-2" fill-opacity="0" x="0" y="0" width="48" height="48"></rect>
                <path d="M24.3818298,6 C14.2309787,6 6,14.2624535 6,24.4570039 C6,32.6098758 11.2667234,39.5273592 18.5728085,41.9681454 C19.4919574,42.1377086 19.8274468,41.5678842 19.8274468,41.0788042 C19.8274468,40.6404777 19.8113617,39.4800661 19.8021702,37.9401561 C14.6882553,39.0555816 13.6094043,35.4659186 13.6094043,35.4659186 C12.7741277,33.3342679 11.5688936,32.7667505 11.5688936,32.7667505 C9.89948936,31.6213343 11.6952766,31.6444041 11.6952766,31.6444041 C13.5393191,31.7747486 14.5101702,33.5465102 14.5101702,33.5465102 C16.1508511,36.3667948 18.8129362,35.5524304 19.860766,35.0794993 C20.0273617,33.8867899 20.5030213,33.073579 21.0280851,32.6121828 C16.9459149,32.1461726 12.6546383,30.5635834 12.6546383,23.4915322 C12.6546383,21.476384 13.3704255,19.8291994 14.5469362,18.5384434 C14.3573617,18.0712797 13.7265957,16.1957039 14.7261702,13.654564 C14.7261702,13.654564 16.2703404,13.158563 19.7814894,15.5462886 C21.2486809,15.1367994 22.8204255,14.9326316 24.3841277,14.9245572 C25.9455319,14.9326316 27.5184255,15.1367994 28.986766,15.5462886 C32.495617,13.158563 34.0363404,13.654564 34.0363404,13.654564 C35.0393617,16.1957039 34.4085957,18.0712797 34.2190213,18.5384434 C35.3978298,19.8291994 36.1090213,21.476384 36.1090213,23.4915322 C36.1090213,30.5808857 31.8108511,32.1415586 27.7160426,32.5983409 C28.3755319,33.1681653 28.9637872,34.2939721 28.9637872,36.0161337 C28.9637872,38.4834502 28.9408085,40.4732216 28.9408085,41.0788042 C28.9408085,41.5724981 29.2717021,42.1469365 30.2046383,41.9658385 C37.5038298,39.5204383 42.7659574,32.6075688 42.7659574,24.4570039 C42.7659574,14.2624535 34.5349787,6 24.3818298,6"></path>
            </g>
        </g>
    </g>
</svg>