<?xml version="1.0" encoding="UTF-8" standalone="no"?>
<svg width="26px" height="26px" viewBox="0 0 26 26" version="1.1" xmlns="http://www.w3.org/2000/svg" xmlns:xlink="http://www.w3.org/1999/xlink">
    <!-- Generator: Sketch 39.1 (31720) - http://www.bohemiancoding.com/sketch -->
    <title>instagram_dark</title>
    <desc>Created with Sketch.</desc>
    <defs></defs>
    <g id="Winter-2018" stroke="none" stroke-width="1" fill="none" fill-rule="evenodd">
        <g id="project-copy" transform="translate(-463.000000, -453.000000)">
            <g id="instagram_dark" transform="translate(458.000000, 448.000000)">
                <rect id="Rectangle-3-Copy" fill-opacity="0" fill="#FFFFFF" x="0" y="0" width="36" height="36"></rect>
                <path d="M18,7.5481875 C21.40425,7.5481875 21.808,7.5609375 23.153125,7.6225625 C26.608375,7.7798125 28.2223125,9.41925 28.3795625,12.849 C28.4411875,14.1930625 28.452875,14.5968125 28.452875,18.0010625 C28.452875,21.406375 28.440125,21.8090625 28.3795625,23.153125 C28.22125,26.5796875 26.6115625,28.2223125 23.153125,28.3795625 C21.808,28.4411875 21.406375,28.4539375 18,28.4539375 C14.59575,28.4539375 14.192,28.4411875 12.8479375,28.3795625 C9.3841875,28.22125 7.77875,26.574375 7.6215,23.1520625 C7.559875,21.808 7.547125,21.4053125 7.547125,18 C7.547125,14.59575 7.5609375,14.1930625 7.6215,12.8479375 C7.7798125,9.41925 9.3895,7.77875 12.8479375,7.6215 C14.1930625,7.5609375 14.59575,7.5481875 18,7.5481875 L18,7.5481875 Z M18,5.25 C14.5373125,5.25 14.1038125,5.264875 12.7438125,5.3265 C8.1134375,5.539 5.5400625,8.108125 5.3275625,12.74275 C5.264875,14.1038125 5.25,14.5373125 5.25,18 C5.25,21.4626875 5.264875,21.89725 5.3265,23.25725 C5.539,27.887625 8.108125,30.461 12.74275,30.6735 C14.1038125,30.735125 14.5373125,30.75 18,30.75 C21.4626875,30.75 21.89725,30.735125 23.25725,30.6735 C27.883375,30.461 30.463125,27.891875 30.6724375,23.25725 C30.735125,21.89725 30.75,21.4626875 30.75,18 C30.75,14.5373125 30.735125,14.1038125 30.6735,12.7438125 C30.46525,8.1176875 27.8929375,5.5400625 23.2583125,5.3275625 C21.89725,5.264875 21.4626875,5.25 18,5.25 L18,5.25 Z M18,11.452875 C14.3843125,11.452875 11.452875,14.3843125 11.452875,18 C11.452875,21.6156875 14.3843125,24.5481875 18,24.5481875 C21.6156875,24.5481875 24.547125,21.61675 24.547125,18 C24.547125,14.3843125 21.6156875,11.452875 18,11.452875 L18,11.452875 Z M18,22.25 C15.6529375,22.25 13.75,20.348125 13.75,18 C13.75,15.6529375 15.6529375,13.75 18,13.75 C20.3470625,13.75 22.25,15.6529375 22.25,18 C22.25,20.348125 20.3470625,22.25 18,22.25 L18,22.25 Z M24.806375,9.6646875 C23.960625,9.6646875 23.2753125,10.35 23.2753125,11.1946875 C23.2753125,12.039375 23.960625,12.7246875 24.806375,12.7246875 C25.6510625,12.7246875 26.3353125,12.039375 26.3353125,11.1946875 C26.3353125,10.35 25.6510625,9.6646875 24.806375,9.6646875 L24.806375,9.6646875 Z" id="Shape" fill="#000000"></path>
            </g>
        </g>
    </g>
</svg>