<?xml version="1.0" encoding="UTF-8" standalone="no"?>
<svg width="34px" height="34px" viewBox="0 0 34 34" version="1.1" xmlns="http://www.w3.org/2000/svg" xmlns:xlink="http://www.w3.org/1999/xlink">
    <!-- Generator: Sketch 39.1 (31720) - http://www.bohemiancoding.com/sketch -->
    <title>instagram</title>
    <desc>Created with Sketch.</desc>
    <defs></defs>
    <g id="Page-1" stroke="none" stroke-width="1" fill="none" fill-rule="evenodd">
        <g id="project" transform="translate(-204.000000, -3371.000000)" fill="#FFFFFF">
            <g id="instagram" transform="translate(197.000000, 3364.000000)">
                <rect id="Rectangle-3-Copy" fill-opacity="0" x="0" y="0" width="48" height="48"></rect>
                <path d="M24,10.06425 C28.539,10.06425 29.0773333,10.08125 30.8708333,10.1634167 C35.4778333,10.3730833 37.62975,12.559 37.8394167,17.132 C37.9215833,18.9240833 37.9371667,19.4624167 37.9371667,24.0014167 C37.9371667,28.5418333 37.9201667,29.07875 37.8394167,30.8708333 C37.6283333,35.4395833 35.4820833,37.62975 30.8708333,37.8394167 C29.0773333,37.9215833 28.5418333,37.9385833 24,37.9385833 C19.461,37.9385833 18.9226667,37.9215833 17.1305833,37.8394167 C12.51225,37.6283333 10.3716667,35.4325 10.162,30.8694167 C10.0798333,29.0773333 10.0628333,28.5404167 10.0628333,24 C10.0628333,19.461 10.08125,18.9240833 10.162,17.1305833 C10.3730833,12.559 12.5193333,10.3716667 17.1305833,10.162 C18.9240833,10.08125 19.461,10.06425 24,10.06425 L24,10.06425 Z M24,7 C19.3830833,7 18.8050833,7.01983333 16.99175,7.102 C10.8179167,7.38533333 7.38675,10.8108333 7.10341667,16.9903333 C7.01983333,18.8050833 7,19.3830833 7,24 C7,28.6169167 7.01983333,29.1963333 7.102,31.0096667 C7.38533333,37.1835 10.8108333,40.6146667 16.9903333,40.898 C18.8050833,40.9801667 19.3830833,41 24,41 C28.6169167,41 29.1963333,40.9801667 31.0096667,40.898 C37.1778333,40.6146667 40.6175,37.1891667 40.8965833,31.0096667 C40.9801667,29.1963333 41,28.6169167 41,24 C41,19.3830833 40.9801667,18.8050833 40.898,16.99175 C40.6203333,10.8235833 37.1905833,7.38675 31.0110833,7.10341667 C29.1963333,7.01983333 28.6169167,7 24,7 L24,7 Z M24,15.2705 C19.1790833,15.2705 15.2705,19.1790833 15.2705,24 C15.2705,28.8209167 19.1790833,32.7309167 24,32.7309167 C28.8209167,32.7309167 32.7295,28.8223333 32.7295,24 C32.7295,19.1790833 28.8209167,15.2705 24,15.2705 L24,15.2705 Z M24,29.6666667 C20.8705833,29.6666667 18.3333333,27.1308333 18.3333333,24 C18.3333333,20.8705833 20.8705833,18.3333333 24,18.3333333 C27.1294167,18.3333333 29.6666667,20.8705833 29.6666667,24 C29.6666667,27.1308333 27.1294167,29.6666667 24,29.6666667 L24,29.6666667 Z M33.0751667,12.88625 C31.9475,12.88625 31.03375,13.8 31.03375,14.92625 C31.03375,16.0525 31.9475,16.96625 33.0751667,16.96625 C34.2014167,16.96625 35.11375,16.0525 35.11375,14.92625 C35.11375,13.8 34.2014167,12.88625 33.0751667,12.88625 L33.0751667,12.88625 Z" id="Shape"></path>
            </g>
        </g>
    </g>
</svg>