<?xml version="1.0" encoding="UTF-8" standalone="no"?>
<svg width="153px" height="153px" viewBox="0 0 153 153" version="1.1" xmlns="http://www.w3.org/2000/svg" xmlns:xlink="http://www.w3.org/1999/xlink">
    <!-- Generator: Sketch 39.1 (31720) - http://www.bohemiancoding.com/sketch -->
    <title>logo</title>
    <desc>Created with Sketch.</desc>
    <defs></defs>
    <g id="Page-1" stroke="none" stroke-width="1" fill="none" fill-rule="evenodd">
        <g id="project" transform="translate(-408.000000, -84.000000)" fill="#262A32">
            <g id="logo" transform="translate(408.000000, 84.000000)">
                <g>
                    <path d="M10.9476048,76.4475351 C10.9476048,112.598018 40.2971913,141.947605 76.4476745,141.947605 C112.598018,141.947605 141.947605,112.598018 141.947605,76.4475351 C141.947605,40.2971913 112.598018,10.9476048 76.4476745,10.9476048 C40.2971913,10.9476048 10.9476048,40.2971913 10.9476048,76.4475351 Z M152.89521,76.4475319 C152.89521,118.643097 118.643148,152.89521 76.4476777,152.89521 C34.2520869,152.89521 0,118.643123 0,76.4475319 C0,34.2520617 34.2521121,-1.42108547e-14 76.4476777,-1.42108547e-14 C118.643123,-1.42108547e-14 152.89521,34.2520869 152.89521,76.4475319 Z" id="Fill-1"></path>
                    <path d="M85.1474064,98.1956989 L85.0080745,32.9025191 C94.8538564,34.2218 102.481696,42.6822787 102.619424,52.9568415 C102.619424,52.9568415 102.714596,80.6650915 102.732085,89.4800213 C102.735,90.9432979 103.921653,92.1283479 105.385076,92.1290766 C111.04988,92.1318457 124.041269,92.1384043 126.624885,92.139716 C126.878627,92.139716 127.088353,92.3373457 127.103802,92.59065 L127.103802,92.5909415 C127.328395,96.2963543 126.01028,99.9296234 123.461788,102.628815 C120.913443,105.328152 117.361936,106.852933 113.649819,106.841565 C104.775571,106.805566 94.8548766,106.766361 93.7211287,106.766361 C88.9871957,106.766361 85.1491553,102.929632 85.1474064,98.1956989 L85.1474064,98.1956989 Z M59.2823894,53.2397319 C59.2823894,42.8928798 66.8786021,34.3246957 76.7383755,32.9240894 C76.7446426,37.1980521 76.8606553,87.9830777 76.8606553,87.9830777 C76.8606553,102.478698 65.0920638,114.247289 50.5964436,114.247289 C36.1008234,114.247289 24.332159,102.478698 24.332159,87.9830777 L24.332159,87.2754872 C24.332159,87.4000989 24.3335728,87.5244191 24.3364877,87.6484479 C24.5142087,80.7529755 30.1677032,75.2095766 37.105733,75.2095766 C44.1556947,75.2095766 49.8793798,80.9332617 49.8793798,87.9830777 C49.8793798,95.0330394 44.1556947,100.756724 37.105733,100.756724 C36.8608819,100.756724 36.617634,100.749729 36.3762809,100.736174 C35.7782904,100.70688 35.2492372,101.120212 35.132933,101.707417 C35.0166287,102.294768 35.3481979,102.878476 35.912084,103.079457 C37.7538596,103.713593 39.7381734,104.059299 41.8059989,104.059299 C51.4499245,104.059299 59.279766,96.5387277 59.279766,87.2754872 C59.279766,87.2754872 59.2823894,53.4447947 59.2823894,53.2397319 Z" id="Fill-2"></path>
                </g>
            </g>
        </g>
    </g>
</svg>