<?xml version="1.0" encoding="UTF-8" standalone="no"?>
<svg width="36px" height="27px" viewBox="0 0 36 27" version="1.1" xmlns="http://www.w3.org/2000/svg" xmlns:xlink="http://www.w3.org/1999/xlink">
    <!-- Generator: Sketch 39.1 (31720) - http://www.bohemiancoding.com/sketch -->
    <title>mail</title>
    <desc>Created with Sketch.</desc>
    <defs></defs>
    <g id="Page-1" stroke="none" stroke-width="1" fill="none" fill-rule="evenodd">
        <g id="project" transform="translate(-642.000000, -3379.000000)" fill="#FFFFFF">
            <g id="mail" transform="translate(636.000000, 3368.000000)">
                <path d="M6,11 L6,38 L42,38 L42,11 L6,11 L6,11 Z M15.9345,22.8935 L9,31.4615 L9,17.2745 L15.9345,22.8935 L15.9345,22.8935 Z M9.723,14 L38.2755,14 L24,25.5695 L9.723,14 L9.723,14 Z M18.264,24.782 L24,29.4305 L29.745,24.7745 L38.163,35 L9.9945,35 L18.264,24.782 L18.264,24.782 Z M32.076,22.886 L39,17.2745 L39,31.2965 L32.076,22.886 L32.076,22.886 Z"></path>
                <rect id="Rectangle-3-Copy-3" fill-opacity="0" x="0" y="0" width="48" height="48"></rect>
            </g>
        </g>
    </g>
</svg>