<?xml version="1.0" encoding="UTF-8" standalone="no"?>
<svg width="28px" height="21px" viewBox="0 0 28 21" version="1.1" xmlns="http://www.w3.org/2000/svg" xmlns:xlink="http://www.w3.org/1999/xlink">
    <!-- Generator: Sketch 39.1 (31720) - http://www.bohemiancoding.com/sketch -->
    <title>mail_dark</title>
    <desc>Created with Sketch.</desc>
    <defs></defs>
    <g id="Winter-2018" stroke="none" stroke-width="1" fill="none" fill-rule="evenodd">
        <g id="project-copy" transform="translate(-562.000000, -456.000000)">
            <g id="mail_dark" transform="translate(558.000000, 448.000000)">
                <path d="M4.5,8.25 L4.5,28.5 L31.5,28.5 L31.5,8.25 L4.5,8.25 L4.5,8.25 Z M11.950875,17.170125 L6.75,23.596125 L6.75,12.955875 L11.950875,17.170125 L11.950875,17.170125 Z M7.29225,10.5 L28.706625,10.5 L18,19.177125 L7.29225,10.5 L7.29225,10.5 Z M13.698,18.5865 L18,22.072875 L22.30875,18.580875 L28.62225,26.25 L7.495875,26.25 L13.698,18.5865 L13.698,18.5865 Z M24.057,17.1645 L29.25,12.955875 L29.25,23.472375 L24.057,17.1645 L24.057,17.1645 Z" id="mail" fill="#000000"></path>
                <rect id="Rectangle-3-Copy-3" fill-opacity="0" fill="#FFFFFF" x="0" y="0" width="36" height="36"></rect>
            </g>
        </g>
    </g>
</svg>