<?xml version="1.0" encoding="UTF-8" standalone="no"?>
<svg width="30px" height="36px" viewBox="0 0 30 36" version="1.1" xmlns="http://www.w3.org/2000/svg" xmlns:xlink="http://www.w3.org/1999/xlink">
    <!-- Generator: Sketch 39.1 (31720) - http://www.bohemiancoding.com/sketch -->
    <title>resume</title>
    <desc>Created with Sketch.</desc>
    <defs></defs>
    <g id="Page-1" stroke="none" stroke-width="1" fill="none" fill-rule="evenodd">
        <g id="project" transform="translate(-824.000000, -3374.000000)" fill="#FFFFFF">
            <g id="resume" transform="translate(815.000000, 3368.000000)">
                <rect id="Rectangle-3-Copy-4" fill-opacity="0" x="0" y="0" width="48" height="48"></rect>
                <path d="M12,39 L12,9 L36,9 L36,26.3145 C36,32.475 27,30 27,30 C27,30 29.277,39 23.043,39 L12,39 L12,39 Z M39,27.579 L39,6 L9,6 L9,42 L24.2835,42 C29.028,42 39,31.1655 39,27.579 L39,27.579 Z M31.5,25.5 L16.5,25.5 L16.5,24 L31.5,24 L31.5,25.5 L31.5,25.5 Z M31.5,19.5 L16.5,19.5 L16.5,21 L31.5,21 L31.5,19.5 L31.5,19.5 Z M31.5,15 L16.5,15 L16.5,16.5 L31.5,16.5 L31.5,15 L31.5,15 Z"></path>
            </g>
        </g>
    </g>
</svg>