<svg width="64" height="64" viewBox="0 0 64 64" fill="none" xmlns="http://www.w3.org/2000/svg">
<path d="M32 0C14.3266 0 0 14.3303 0 32C0 49.677 14.3266 64 32 64C49.6734 64 64 49.677 64 32C64 14.3303 49.6734 0 32 0ZM19.2503 19.4105H37.6447L34.8515 23.8826H16.457L19.2503 19.4105ZM49.9829 41.7599L47.1861 37.2951H39.0213L41.8218 32.823H44.4001L41.2828 27.8448L32.5863 41.7562H9.38841L14.9748 32.8194H10.8742L13.6638 28.3473H31.5994L28.8062 32.8267H20.2517L17.4549 37.2987H30.1063L41.2828 19.4105L55.2525 41.7635L49.9829 41.7599Z" fill="white"/>
</svg>
