<?xml version="1.0" encoding="UTF-8" standalone="no"?><!DOCTYPE svg PUBLIC "-//W3C//DTD SVG 1.1//EN" "http://www.w3.org/Graphics/SVG/1.1/DTD/svg11.dtd"><svg width="100%" height="100%" viewBox="0 0 1024 1024" version="1.1" xmlns="http://www.w3.org/2000/svg" xmlns:xlink="http://www.w3.org/1999/xlink" xml:space="preserve" style="fill-rule:evenodd;clip-rule:evenodd;stroke-linecap:round;stroke-linejoin:round;stroke-miterlimit:1.5;"><rect x="-289.728" y="-14.094" width="1504.34" height="1131.88" style="fill:#fff;"/><circle cx="512" cy="512" r="512" style="fill:#fff;"/><g><path d="M803.783,536.083c8.324,14.317 -25.607,178.992 -14.219,178.64c0,0 -10.148,64.925 -30.081,96.102c-49.359,77.203 -117.553,111.188 -232.716,86.262c-116.546,-25.225 -155.456,-65.124 -220.743,-120.055c-46.608,3.804 -135.615,-83.25 -149.292,-149.851c-11.86,-57.754 21.666,-93.055 63.652,-91.098c41.986,1.958 92.22,53.042 97.363,119.172c-0.062,-43.474 25.106,-75.854 37.449,-119.172c21.805,-76.527 335.05,-195.285 448.587,0Z" style="fill:#fdd7b3;"/><clipPath id="_clip1"><path d="M803.783,536.083c8.324,14.317 -25.607,178.992 -14.219,178.64c0,0 -10.148,64.925 -30.081,96.102c-49.359,77.203 -117.553,111.188 -232.716,86.262c-116.546,-25.225 -155.456,-65.124 -220.743,-120.055c-46.608,3.804 -135.615,-83.25 -149.292,-149.851c-11.86,-57.754 21.666,-93.055 63.652,-91.098c41.986,1.958 92.22,53.042 97.363,119.172c-0.062,-43.474 25.106,-75.854 37.449,-119.172c21.805,-76.527 335.05,-195.285 448.587,0Z"/></clipPath><g clip-path="url(#_clip1)"><circle cx="544.49" cy="707.345" r="204.621" style="fill:#fbbb7c;"/><circle cx="679.146" cy="546.964" r="204.621" style="fill:#fbbb7c;"/><circle cx="346.046" cy="614.773" r="239.583" style="fill:#fbbb7c;"/></g><path d="M409.686,283.051c-77.981,-61.242 4.885,-181.624 77.76,-162.083c30.199,8.098 26.951,97.615 -77.76,162.083Z" style="fill:#4a2a19;"/><path d="M320.8,212.672c42.425,-5.189 85.251,2.58 132.518,40.45c0,0 47.553,-57.533 196.826,-53.383c74.305,2.066 182.749,37.56 213.292,161.807c30.542,124.247 -52.827,182.895 -52.827,182.895c-89.612,-43.811 -108.989,-12.5 -200.85,0c-56.998,-106.893 -177.66,-64.424 -233.687,-37.738c-39.149,46.72 -50.388,97.402 -58.325,148.552c-16.195,-60.033 -50.823,-108.223 -97.685,-148.552l-11.163,29.791c-116.973,-138.187 -13.33,-308.505 111.901,-323.822Z" style="fill:#82422c;"/><clipPath id="_clip2"><path d="M320.8,212.672c42.425,-5.189 85.251,2.58 132.518,40.45c0,0 47.553,-57.533 196.826,-53.383c74.305,2.066 182.749,37.56 213.292,161.807c30.542,124.247 -52.827,182.895 -52.827,182.895c-89.612,-43.811 -108.989,-12.5 -200.85,0c-56.998,-106.893 -177.66,-64.424 -233.687,-37.738c-39.149,46.72 -50.388,97.402 -58.325,148.552c-16.195,-60.033 -50.823,-108.223 -97.685,-148.552l-11.163,29.791c-116.973,-138.187 -13.33,-308.505 111.901,-323.822Z"/></clipPath><g clip-path="url(#_clip2)"><circle cx="426.83" cy="444.159" r="229.6" style="fill:#4a2a19;"/><circle cx="723.876" cy="416.757" r="337.016" style="fill:#4a2a19;"/><ellipse cx="775.191" cy="286.325" rx="189.563" ry="97.742" style="fill:#82422c;"/></g><path d="M409.686,283.051c-77.981,-61.242 4.885,-181.624 77.76,-162.083c30.199,8.098 26.951,97.615 -77.76,162.083Z" style="fill:none;stroke:#471c06;stroke-width:24px;"/><path d="M208.899,536.494c-119.998,-141.761 -7.821,-317.337 121.659,-324.697c29.47,-1.675 44.789,0 44.789,0" style="fill:none;stroke:#471c06;stroke-width:24px;"/><path d="M514.673,476.676c46.523,8.542 83.496,33.071 101.023,90.157c-16.595,92.496 -52.804,148.889 -120.622,147.095c-72.437,-0.475 -138.153,-10.879 -133.298,-125.533l21.621,-85.096l131.276,-26.623Z" style="fill:#fff;fill-opacity:0.375306;"/><path d="M817.068,552.393c-26.526,45.211 -22.603,61.718 -22.603,61.718l43.207,9.996c0.428,-41.87 -2.752,-69.598 -20.604,-71.714Z" style="fill:#200c03;"/><path d="M721.242,418.624c0.652,0.078 0.819,0.082 1.461,0.22c0.964,0.206 1.902,0.532 2.787,0.967c1.105,0.545 2.125,1.26 3.014,2.114c1.067,1.025 1.94,2.247 2.564,3.588c0.625,1.34 0.998,2.795 1.096,4.271c0.032,0.492 0.034,0.986 0.006,1.478c-0.026,0.455 -0.084,0.904 -0.138,1.356c-0.054,0.438 -0.105,0.85 -0.162,1.288c-0.25,1.927 -0.535,3.849 -0.856,5.766c-1.135,6.773 -2.713,13.472 -4.719,20.041c-2.863,9.377 -6.599,18.486 -11.139,27.177c-4.532,8.676 -9.866,16.933 -15.913,24.632c-5.681,7.233 -11.992,13.971 -18.842,20.111c-6.771,6.069 -14.067,11.55 -21.784,16.36c-5.415,3.375 -11.036,6.42 -16.822,9.112c-0.805,0.375 -1.614,0.743 -2.426,1.105c-0.204,0.09 -0.407,0.18 -0.611,0.27c-0.42,0.184 -0.844,0.375 -1.275,0.533c-0.231,0.084 -0.465,0.162 -0.701,0.232c-1.892,0.563 -3.916,0.649 -5.849,0.25c-1.449,-0.299 -2.839,-0.868 -4.081,-1.67c-1.036,-0.669 -1.966,-1.497 -2.75,-2.448c-0.941,-1.141 -1.668,-2.456 -2.133,-3.86c-0.543,-1.638 -0.726,-3.391 -0.535,-5.106c0.137,-1.225 0.464,-2.427 0.965,-3.553c0.905,-2.029 2.376,-3.789 4.214,-5.038c0.407,-0.277 0.832,-0.529 1.27,-0.754c0.435,-0.223 0.772,-0.361 1.211,-0.554c0.172,-0.076 0.345,-0.153 0.517,-0.229c0.344,-0.154 0.688,-0.309 1.032,-0.465c1.196,-0.547 2.386,-1.107 3.567,-1.687c2.512,-1.235 4.986,-2.549 7.416,-3.939c6.71,-3.84 13.085,-8.267 19.028,-13.211c8.654,-7.2 16.389,-15.494 22.981,-24.618c6.986,-9.67 12.686,-20.266 16.899,-31.428c2.63,-6.967 4.682,-14.151 6.122,-21.457c0.459,-2.33 0.857,-4.673 1.191,-7.025c0.156,-1.097 0.296,-2.195 0.427,-3.296l0.11,-0.73c0.138,-0.642 0.158,-0.807 0.354,-1.435c0.221,-0.705 0.507,-1.39 0.854,-2.043c0.694,-1.306 1.63,-2.481 2.749,-3.448c1.306,-1.13 2.854,-1.97 4.512,-2.45c0.71,-0.206 1.439,-0.345 2.175,-0.417c0.654,-0.064 0.82,-0.049 1.477,-0.052c0.246,0.014 0.491,0.028 0.737,0.042Z" style="fill:#471c06;fill-rule:nonzero;"/><path d="M373.047,387.773c0.241,0.026 0.482,0.045 0.721,0.078c0.718,0.1 1.427,0.265 2.116,0.492c1.377,0.455 2.669,1.162 3.795,2.076c0.939,0.761 1.761,1.665 2.43,2.671c0.268,0.403 0.511,0.821 0.729,1.253c0.257,0.512 0.474,1.045 0.697,1.573c0.396,0.939 0.781,1.882 1.155,2.83c2.655,6.748 4.716,13.729 6.155,20.836c1.428,7.055 2.244,14.233 2.438,21.428c0.199,7.356 -0.252,14.728 -1.348,22.005c-1.026,6.816 -2.618,13.548 -4.757,20.101c-2.006,6.141 -4.492,12.126 -7.431,17.879c-2.119,4.147 -4.473,8.174 -7.046,12.056c-0.77,1.161 -1.56,2.31 -2.369,3.445c-0.304,0.427 -0.611,0.852 -0.921,1.275c-0.098,0.135 -0.195,0.27 -0.296,0.403c-0.344,0.451 -0.538,0.7 -0.927,1.113c-0.994,1.057 -2.18,1.93 -3.484,2.565c-1.087,0.53 -2.253,0.893 -3.447,1.076c-1.434,0.218 -2.906,0.174 -4.325,-0.13c-1.655,-0.355 -3.23,-1.063 -4.594,-2.066c-0.973,-0.716 -1.837,-1.579 -2.554,-2.552c-0.86,-1.168 -1.505,-2.492 -1.895,-3.889c-0.39,-1.398 -0.523,-2.864 -0.393,-4.309c0.131,-1.444 0.526,-2.863 1.161,-4.167c0.211,-0.435 0.449,-0.856 0.711,-1.263c0.251,-0.387 0.421,-0.607 0.678,-0.958c0.166,-0.227 0.331,-0.456 0.496,-0.684c0.246,-0.344 0.491,-0.688 0.734,-1.034c0.561,-0.805 1.114,-1.617 1.653,-2.437c1.071,-1.631 2.095,-3.293 3.068,-4.984c2.951,-5.125 5.443,-10.513 7.438,-16.079c2.885,-8.047 4.731,-16.462 5.492,-24.976c0.77,-8.616 0.431,-17.33 -1.012,-25.86c-0.882,-5.221 -2.177,-10.372 -3.872,-15.389c-0.568,-1.682 -1.181,-3.348 -1.837,-4.997c-0.358,-0.899 -0.731,-1.791 -1.113,-2.679l-0.266,-0.674c-0.199,-0.613 -0.264,-0.762 -0.407,-1.391c-0.269,-1.178 -0.359,-2.396 -0.266,-3.601c0.132,-1.688 0.624,-3.343 1.436,-4.829c0.696,-1.273 1.623,-2.416 2.725,-3.359c0.919,-0.786 1.956,-1.432 3.066,-1.909c1.11,-0.477 2.292,-0.785 3.495,-0.91c0.641,-0.067 0.803,-0.054 1.447,-0.063c0.242,0.012 0.483,0.023 0.724,0.034Z" style="fill:#471c06;fill-rule:nonzero;"/><path d="M675.395,552.485c20.135,-21.516 45.215,-34.946 82.306,-28.733c55.074,-17.647 156.664,111.924 28.862,197.978c-92.86,18.792 -127.106,-21.19 -128.089,-94.526c-9.267,-27.378 -3.168,-52.208 16.921,-74.719Z" style="fill:#fff;fill-opacity:0.375306;"/><path d="M651.097,648.093c-8.381,-75.902 45.662,-105.424 94.067,-89.482c48.406,15.943 60.894,64.531 35.461,110.911c-32.716,59.661 -122.159,45.305 -129.528,-21.429Z" style="fill:none;"/><clipPath id="_clip3"><path d="M651.097,648.093c-8.381,-75.902 45.662,-105.424 94.067,-89.482c48.406,15.943 60.894,64.531 35.461,110.911c-32.716,59.661 -122.159,45.305 -129.528,-21.429Z"/></clipPath><g clip-path="url(#_clip3)"><path d="M725.009,564.497c26.79,6.77 41.439,40.366 32.692,74.975c-8.747,34.609 -37.598,57.21 -64.388,50.44c-26.79,-6.771 -41.439,-40.366 -32.692,-74.976c8.747,-34.609 37.599,-57.21 64.388,-50.439Z" style="fill:#d51f12;"/><clipPath id="_clip4"><path d="M725.009,564.497c26.79,6.77 41.439,40.366 32.692,74.975c-8.747,34.609 -37.598,57.21 -64.388,50.44c-26.79,-6.771 -41.439,-40.366 -32.692,-74.976c8.747,-34.609 37.599,-57.21 64.388,-50.439Z"/></clipPath><g clip-path="url(#_clip4)"><path d="M806.044,548.032l-129.228,-36.032l-30.434,109.154l129.228,36.031l30.434,-109.153Z" style="fill:#7f000c;"/></g><path d="M725.009,564.497c26.79,6.77 41.439,40.366 32.692,74.975c-8.747,34.609 -37.598,57.21 -64.388,50.44c-26.79,-6.771 -41.439,-40.366 -32.692,-74.976c8.747,-34.609 37.599,-57.21 64.388,-50.439Z" style="fill:none;stroke:#7f000c;stroke-width:24px;"/><path d="M698.551,584.52c16.187,4.091 25.258,23.521 20.243,43.362c-5.014,19.841 -22.227,32.628 -38.414,28.537c-16.188,-4.091 -25.259,-23.521 -20.244,-43.362c5.014,-19.841 22.227,-32.628 38.415,-28.537Z" style="fill:#f1615a;stroke:#7f000c;stroke-width:24px;"/></g><path d="M813.276,544.441c0,0 80.702,-58.648 50.16,-182.895c-30.543,-124.247 -138.987,-159.741 -213.292,-161.807c-149.273,-4.15 -239.74,85.693 -239.74,85.693" style="fill:none;stroke:#471c06;stroke-width:24px;"/><path d="M399.892,615.758c-10.027,-83.993 54.631,-116.662 112.545,-99.02c57.913,17.641 72.855,71.409 42.426,122.734c-39.143,66.021 -146.154,50.135 -154.971,-23.714Z" style="fill:none;"/><clipPath id="_clip5"><path d="M399.892,615.758c-10.027,-83.993 54.631,-116.662 112.545,-99.02c57.913,17.641 72.855,71.409 42.426,122.734c-39.143,66.021 -146.154,50.135 -154.971,-23.714Z"/></clipPath><g clip-path="url(#_clip5)"><path d="M485.152,509.384c33.556,5.61 58.964,46.706 51.49,91.409c-7.474,44.704 -45.017,76.196 -78.573,70.586c-33.556,-5.61 -54.732,-46.459 -47.258,-91.162c7.473,-44.704 40.785,-76.443 74.341,-70.833Z" style="fill:#d51f12;"/><clipPath id="_clip6"><path d="M485.152,509.384c33.556,5.61 58.964,46.706 51.49,91.409c-7.474,44.704 -45.017,76.196 -78.573,70.586c-33.556,-5.61 -54.732,-46.459 -47.258,-91.162c7.473,-44.704 40.785,-76.443 74.341,-70.833Z"/></clipPath><g clip-path="url(#_clip6)"><path d="M589.139,516.736l-179.084,-40.327l-24.894,110.549l179.083,40.327l24.895,-110.549Z" style="fill:#7f000c;"/></g><path d="M485.152,509.384c33.556,5.61 58.964,46.706 51.49,91.409c-7.474,44.704 -45.017,76.196 -78.573,70.586c-33.556,-5.61 -54.732,-46.459 -47.258,-91.162c7.473,-44.704 40.785,-76.443 74.341,-70.833Z" style="fill:none;stroke:#7f000c;stroke-width:24px;"/><path d="M468.33,544.765c19.688,3.292 34.803,26.155 30.678,50.827c-4.124,24.671 -25.937,41.869 -45.625,38.578c-19.687,-3.292 -32.322,-25.994 -28.197,-50.666c4.125,-24.672 23.457,-42.03 43.144,-38.739Z" style="fill:#f1615a;stroke:#7f000c;stroke-width:24px;"/></g><path d="M490.202,501.686c1.015,0.008 2.029,0.027 3.043,0.063c2.031,0.073 4.06,0.208 6.082,0.405c6.276,0.613 12.494,1.831 18.53,3.662c7.668,2.325 15.032,5.64 21.842,9.864c6.329,3.926 12.168,8.628 17.38,13.948c4.571,4.666 8.656,9.799 12.23,15.265c1.541,2.357 2.988,4.776 4.341,7.245c0.643,1.173 1.262,2.358 1.865,3.552l0.132,0.264c0.323,0.708 0.424,0.878 0.668,1.619c0.642,1.945 0.774,4.047 0.381,6.058c-0.28,1.435 -0.824,2.816 -1.599,4.056c-0.774,1.24 -1.776,2.335 -2.942,3.216c-0.933,0.705 -1.968,1.273 -3.065,1.679c-1.096,0.407 -2.251,0.652 -3.418,0.725c-1.459,0.092 -2.933,-0.086 -4.328,-0.521c-1.116,-0.348 -2.18,-0.861 -3.149,-1.516c-1.211,-0.819 -2.268,-1.86 -3.107,-3.057c-0.167,-0.24 -0.326,-0.485 -0.476,-0.736c-0.259,-0.435 -0.351,-0.631 -0.539,-1.005c-0.147,-0.292 -0.296,-0.584 -0.446,-0.875c-0.186,-0.36 -0.375,-0.718 -0.565,-1.076c-1.83,-3.417 -3.873,-6.717 -6.158,-9.85c-3.419,-4.687 -7.367,-8.992 -11.8,-12.738c-4.422,-3.737 -9.316,-6.908 -14.541,-9.403c-3.929,-1.877 -8.039,-3.372 -12.251,-4.476c-3.463,-0.907 -6.994,-1.55 -10.552,-1.934c-1.915,-0.207 -3.837,-0.34 -5.761,-0.399c-15.275,-0.471 -30.614,3.649 -43.735,11.448c-7.628,4.534 -14.511,10.322 -20.21,17.128c-4.089,4.883 -7.558,10.279 -10.293,16.032c-2.51,5.282 -4.397,10.854 -5.651,16.566c-1.056,4.808 -1.666,9.71 -1.867,14.628c-0.074,1.792 -0.093,3.586 -0.062,5.38c0.015,0.846 0.044,1.692 0.079,2.537l0.004,0.877c-0.02,0.291 -0.029,0.584 -0.06,0.874c-0.061,0.582 -0.165,1.158 -0.31,1.725c-0.509,1.984 -1.531,3.826 -2.946,5.307c-0.807,0.846 -1.738,1.572 -2.755,2.149c-1.017,0.577 -2.118,1.004 -3.258,1.264c-1.426,0.325 -2.908,0.386 -4.356,0.18c-1.157,-0.165 -2.29,-0.5 -3.351,-0.991c-1.061,-0.491 -2.049,-1.138 -2.923,-1.914c-1.094,-0.971 -2.006,-2.141 -2.681,-3.438c-0.674,-1.297 -1.109,-2.716 -1.276,-4.168c-0.058,-0.508 -0.073,-0.968 -0.092,-1.472c-0.025,-0.627 -0.044,-1.254 -0.058,-1.882c-0.057,-2.47 -0.037,-4.943 0.065,-7.412c0.259,-6.317 1.049,-12.615 2.405,-18.792c1.409,-6.417 3.43,-12.699 6.053,-18.723c3.227,-7.415 7.365,-14.429 12.291,-20.843c3.3,-4.296 6.95,-8.322 10.896,-12.034c4.014,-3.775 8.334,-7.224 12.898,-10.312c9.293,-6.286 19.592,-11.072 30.381,-14.144c6.01,-1.712 12.172,-2.892 18.391,-3.508c2.016,-0.199 4.038,-0.339 6.063,-0.419c1.013,-0.04 2.026,-0.063 3.04,-0.075c0.507,-0.003 1.014,-0.004 1.521,-0.003Z" style="fill:#471c06;fill-rule:nonzero;"/><path d="M735.248,545.262c1.867,0.017 3.733,0.082 5.596,0.21c4.143,0.287 8.267,0.863 12.326,1.741c4.896,1.059 9.698,2.559 14.31,4.513c5.178,2.193 10.115,4.961 14.653,8.284c2.718,1.99 5.292,4.178 7.69,6.547c3.093,3.056 5.889,6.412 8.336,10.007c2.901,4.261 5.308,8.853 7.198,13.648c0.236,0.599 0.464,1.202 0.685,1.807c0.197,0.543 0.399,1.087 0.554,1.644c0.072,0.257 0.136,0.517 0.19,0.779c0.382,1.834 0.328,3.752 -0.158,5.561c-0.347,1.292 -0.911,2.523 -1.663,3.629c-0.601,0.885 -1.32,1.689 -2.134,2.383c-1.425,1.217 -3.133,2.091 -4.953,2.534c-1.56,0.38 -3.193,0.443 -4.777,0.183c-1.32,-0.216 -2.602,-0.654 -3.778,-1.29c-1.884,-1.021 -3.478,-2.548 -4.579,-4.386c-0.275,-0.459 -0.519,-0.936 -0.73,-1.427c-0.197,-0.459 -0.356,-0.932 -0.525,-1.402c-0.075,-0.204 -0.151,-0.407 -0.227,-0.611c-0.529,-1.381 -1.11,-2.741 -1.762,-4.069c-1.231,-2.512 -2.693,-4.911 -4.375,-7.146c-1.672,-2.223 -3.559,-4.282 -5.625,-6.144c-1.273,-1.149 -2.614,-2.223 -4.01,-3.219c-1.015,-0.723 -2.059,-1.406 -3.128,-2.047c-6.968,-4.178 -14.928,-6.555 -22.986,-7.387c-1.248,-0.129 -2.501,-0.222 -3.755,-0.278c-1.689,-0.075 -3.38,-0.086 -5.07,-0.032c-2.131,0.066 -4.26,0.235 -6.375,0.501c-2.663,0.335 -5.306,0.827 -7.911,1.47c-3.338,0.825 -6.615,1.901 -9.789,3.225c-4.332,1.807 -8.474,4.077 -12.3,6.8c-3.106,2.21 -6.002,4.719 -8.611,7.5c-2.563,2.73 -4.846,5.721 -6.795,8.918c-1.498,2.457 -2.797,5.034 -3.888,7.696c-1.108,2.703 -2.001,5.492 -2.685,8.33c-1.119,4.639 -1.68,9.403 -1.777,14.172c-0.034,1.701 -0.009,3.404 0.069,5.104c0.034,0.745 0.081,1.489 0.133,2.234l0.03,0.801c-0.008,0.267 -0.007,0.535 -0.024,0.802c-0.034,0.534 -0.104,1.065 -0.209,1.589c-0.367,1.838 -1.169,3.58 -2.325,5.055c-0.66,0.841 -1.433,1.594 -2.292,2.231c-0.859,0.638 -1.803,1.159 -2.8,1.547c-1.496,0.582 -3.107,0.859 -4.711,0.811c-1.605,-0.049 -3.196,-0.422 -4.654,-1.093c-1.215,-0.559 -2.334,-1.322 -3.299,-2.248c-1.157,-1.112 -2.087,-2.457 -2.718,-3.932c-0.421,-0.984 -0.71,-2.023 -0.856,-3.083c-0.063,-0.459 -0.09,-0.88 -0.121,-1.338c-0.025,-0.38 -0.049,-0.757 -0.071,-1.138c-0.074,-1.315 -0.125,-2.631 -0.149,-3.948c-0.133,-7.114 0.487,-14.248 1.989,-21.206c0.81,-3.754 1.875,-7.452 3.2,-11.056c1.277,-3.476 2.797,-6.864 4.549,-10.127c2.43,-4.526 5.309,-8.809 8.58,-12.771c2.51,-3.04 5.248,-5.89 8.179,-8.526c5.736,-5.16 12.203,-9.489 19.117,-12.908c6.147,-3.039 12.645,-5.363 19.317,-6.945c4.643,-1.101 9.371,-1.844 14.129,-2.218c2.154,-0.17 4.312,-0.258 6.472,-0.28c0.431,-0.002 0.862,-0.003 1.293,-0.001Z" style="fill:#471c06;fill-rule:nonzero;"/><path d="M813.285,544.424c-8.402,14.834 -15.971,32.553 -18.677,51.272c-7.211,49.887 3.233,155.134 -35.125,215.129c-49.359,77.203 -117.553,111.188 -232.716,86.262c-116.546,-25.225 -155.456,-65.124 -220.743,-120.055c-46.608,3.804 -135.615,-83.25 -149.292,-149.851c-11.86,-57.754 21.666,-93.055 63.652,-91.098c41.986,1.958 92.22,53.042 97.363,119.172c2.88,-52.923 16.399,-101.517 58.102,-138.641" style="fill:none;stroke:#471c06;stroke-width:24px;"/><path d="M483.251,456.893c0.965,-0.041 1.932,-0.076 2.898,-0.107c2.22,-0.07 4.44,-0.111 6.661,-0.129c0.81,-0.005 1.619,-0.007 2.428,-0.006c2.636,0.009 5.273,0.052 7.908,0.14c4.905,0.165 9.806,0.478 14.692,0.948c4.883,0.47 9.755,1.083 14.588,1.931c6.888,1.207 13.698,2.87 20.35,5.032c5.81,1.888 11.499,4.156 17.001,6.813c6.026,2.909 11.827,6.283 17.323,10.1c6.724,4.669 12.987,9.998 18.679,15.881c6.554,6.776 12.351,14.279 17.286,22.309c3.864,6.287 7.205,12.897 9.927,19.756l0.121,0.309l0.062,0.158l16.224,2.64c0.277,-0.355 0.558,-0.708 0.839,-1.061c0.264,-0.329 0.531,-0.658 0.798,-0.985c0.945,-1.149 1.909,-2.282 2.896,-3.394c3.829,-4.316 7.978,-8.349 12.41,-12.042c5.024,-4.187 10.418,-7.936 16.125,-11.132c5.282,-2.957 10.832,-5.437 16.571,-7.365c5.598,-1.881 11.372,-3.232 17.223,-4.031c5.807,-0.793 11.685,-1.041 17.54,-0.775c2.113,0.096 4.224,0.258 6.328,0.484c1.034,0.111 2.067,0.239 3.099,0.378c0.589,0.087 1.178,0.175 1.768,0.263c3.818,0.585 7.626,1.232 11.418,1.967c3.308,0.642 6.603,1.348 9.881,2.126c2.394,0.569 4.778,1.176 7.151,1.826c1.824,0.5 3.641,1.025 5.45,1.577c11.31,3.454 22.339,7.983 32.511,14.047c1.73,1.031 3.434,2.106 5.108,3.226c2.192,1.465 4.332,3.007 6.413,4.626c3.525,2.741 6.878,5.703 10.03,8.867c2.724,2.734 5.297,5.619 7.715,8.627c2.274,2.83 4.411,5.769 6.426,8.788c2.195,3.288 4.244,6.671 6.192,10.11c1.267,2.236 2.489,4.496 3.693,6.766l1.039,2.531c0.175,0.895 0.362,1.788 0.527,2.685c0.024,0.133 0.026,0.27 0.039,0.405c0.027,0.287 0.053,0.574 0.078,0.862c0.089,1.009 0.166,2.019 0.232,3.03c0.199,3.074 0.294,6.155 0.293,9.235c-0.002,9.583 -0.913,19.16 -2.559,28.598c-1.109,6.357 -2.555,12.655 -4.315,18.863c-1.789,6.308 -3.904,12.523 -6.338,18.611c-4.484,11.215 -10.053,22.016 -16.765,32.063c-8.099,12.125 -17.91,23.191 -29.465,32.126c-1.649,1.275 -3.332,2.505 -5.048,3.687c-4.914,3.385 -10.103,6.373 -15.518,8.881c-5.361,2.483 -10.941,4.493 -16.661,5.977c-5.732,1.487 -11.599,2.444 -17.506,2.866c-5.998,0.43 -12.032,0.309 -18.013,-0.315c-2.008,-0.209 -4.009,-0.474 -6.002,-0.794c-1.682,-0.269 -3.358,-0.574 -5.024,-0.929c-3.291,-0.7 -6.547,-1.58 -9.733,-2.661c-3.568,-1.211 -7.054,-2.652 -10.424,-4.339c-4.774,-2.391 -9.305,-5.263 -13.507,-8.558c-3.535,-2.771 -6.837,-5.837 -9.882,-9.139c-2.979,-3.229 -5.713,-6.681 -8.205,-10.298c-4.523,-6.566 -8.247,-13.662 -11.304,-21.02c-2.634,-6.339 -4.779,-12.875 -6.532,-19.51c-1.996,-7.554 -3.486,-15.238 -4.58,-22.973c-1.137,-8.032 -1.849,-16.124 -2.212,-24.227c-0.388,-8.68 -0.375,-17.376 0.011,-26.055l0.009,-0.197l-6.419,-0.916c-0.122,0.547 -0.245,1.094 -0.37,1.64c-0.44,1.911 -0.898,3.817 -1.38,5.718c-1.416,5.585 -3.014,11.125 -4.792,16.607c-1.663,5.124 -3.483,10.198 -5.467,15.206c-1.479,3.735 -3.051,7.433 -4.719,11.088c-1.236,2.707 -2.524,5.389 -3.868,8.044c-0.974,1.924 -1.977,3.834 -3.01,5.727c-7.137,13.078 -15.721,25.42 -25.984,36.245c-1.658,1.748 -3.359,3.457 -5.103,5.12c-2.211,2.109 -4.491,4.147 -6.838,6.104c-3.03,2.526 -6.171,4.918 -9.417,7.159c-4.303,2.97 -8.79,5.673 -13.433,8.077c-4.916,2.546 -10.006,4.756 -15.223,6.61c-5.127,1.822 -10.375,3.3 -15.695,4.436c-5.116,1.092 -10.297,1.869 -15.505,2.349c-8.874,0.818 -17.818,0.773 -26.694,0.017c-5.929,-0.506 -11.827,-1.332 -17.679,-2.411c-12.322,-2.27 -24.45,-5.696 -36.024,-10.516c-6.498,-2.707 -12.815,-5.85 -18.87,-9.441c-6.056,-3.592 -11.847,-7.63 -17.296,-12.09c-6.334,-5.184 -12.199,-10.935 -17.517,-17.156c-2.989,-3.497 -5.805,-7.14 -8.443,-10.908c-2.004,-2.862 -3.905,-5.797 -5.703,-8.793c-1.366,-2.278 -2.673,-4.592 -3.921,-6.937c-8.124,-15.266 -13.71,-31.809 -17.185,-48.728c-0.549,-2.673 -1.045,-5.356 -1.491,-8.048c-0.643,-3.89 -1.18,-7.797 -1.613,-11.715c-0.877,-7.936 -1.333,-15.919 -1.339,-23.903c-0.69,-0.14 -1.381,-0.276 -2.073,-0.411c-7.095,-1.369 -14.237,-2.485 -21.398,-3.451c-6.891,-0.929 -13.8,-1.718 -20.719,-2.41c-7.94,-0.793 -15.892,-1.457 -23.851,-2.012c-2.914,-0.203 -5.829,-0.391 -8.745,-0.562c-2.516,-0.148 -5.033,-0.284 -7.551,-0.397l-0.165,-0.007c-1.081,-0.175 -2.189,-0.225 -3.242,-0.526c-1.053,-0.3 -2.077,-0.728 -3.031,-1.266c-1.92,-1.083 -3.558,-2.604 -4.78,-4.44c-0.606,-0.912 -0.99,-1.953 -1.486,-2.929c-0.024,-0.065 -0.048,-0.13 -0.077,-0.193c-0.167,-0.354 -0.41,-0.673 -0.666,-0.968c-0.415,-0.478 -0.889,-0.904 -1.385,-1.296c-0.893,-0.705 -1.868,-1.304 -2.875,-1.83c-1.284,-0.671 -2.628,-1.226 -3.999,-1.693c-0.919,-0.312 -1.851,-0.585 -2.792,-0.821c-1.183,-0.297 -2.381,-0.537 -3.586,-0.725c-1.847,-0.287 -3.712,-0.451 -5.58,-0.495c-1.4,-0.033 -2.801,0.002 -4.197,0.107c-1.039,0.078 -2.076,0.195 -3.106,0.353c-0.821,0.125 -1.639,0.277 -2.45,0.457c-0.609,0.134 -1.215,0.285 -1.817,0.451c-4.056,1.122 -7.963,2.999 -11.101,5.839c-0.576,0.522 -1.125,1.074 -1.641,1.655c-0.804,0.905 -1.53,1.88 -2.168,2.909c-0.872,1.406 -1.578,2.91 -2.133,4.468c-0.302,0.847 -0.555,1.708 -0.776,2.579l-1.362,3.41c-1.934,2.581 -2.24,3.519 -5.091,5.203c-1.054,0.622 -2.2,1.109 -3.379,1.435c-1.18,0.327 -2.413,0.499 -3.637,0.508c-1.223,0.009 -2.459,-0.145 -3.643,-0.455c-2.388,-0.625 -4.569,-1.87 -6.322,-3.609c-0.868,-0.863 -1.629,-1.848 -2.243,-2.906c-1.663,-2.864 -1.47,-3.832 -1.893,-7.03l0,-49.539c0.35,-2.914 0.187,-3.77 1.566,-6.434c0.511,-0.987 1.145,-1.92 1.875,-2.758c1.47,-1.689 3.324,-3 5.406,-3.825c1.033,-0.409 2.123,-0.696 3.224,-0.849c1.843,-0.256 2.756,-0.12 4.298,0.034c0.633,0.064 1.266,0.125 1.899,0.187c0.945,0.091 1.891,0.18 2.836,0.268c2.495,0.227 4.991,0.443 7.488,0.64c4.579,0.362 9.163,0.669 13.75,0.92c11.91,0.653 23.841,0.93 35.769,0.819c10.336,-0.096 20.67,-0.482 30.985,-1.15c10.234,-0.662 20.449,-1.603 30.635,-2.792c8.71,-1.018 17.398,-2.218 26.062,-3.569c7.849,-1.224 15.678,-2.572 23.491,-4.011c7.537,-1.389 15.059,-2.862 22.571,-4.38c9.382,-1.896 18.75,-3.86 28.122,-5.802c2.499,-0.516 4.998,-1.03 7.497,-1.542c12.215,-2.492 24.452,-4.893 36.759,-6.894c10.031,-1.632 20.111,-2.998 30.234,-3.913c0.528,-0.062 1.055,-0.121 1.583,-0.177c3.179,-0.337 6.37,-0.573 9.564,-0.712c1.325,-0.057 2.65,-0.097 3.976,-0.121Zm263.811,81.634c-3.225,0.013 -6.448,0.161 -9.657,0.481c-5.739,0.573 -11.431,1.684 -16.926,3.446c-5.387,1.727 -10.574,4.082 -15.378,7.072c-3.269,2.035 -6.356,4.359 -9.217,6.936c-1.955,1.761 -3.804,3.639 -5.539,5.617c-1.243,1.417 -2.427,2.884 -3.552,4.396c-3.347,4.498 -6.16,9.382 -8.47,14.488c-2.29,5.06 -4.087,10.338 -5.452,15.72c-0.42,1.656 -0.799,3.322 -1.139,4.996c-0.41,2.022 -0.763,4.056 -1.062,6.098c-0.376,2.569 -0.665,5.151 -0.873,7.739c-0.264,3.296 -0.395,6.602 -0.401,9.908c-0.008,4.354 0.202,8.707 0.62,13.04c0.53,5.485 1.393,10.939 2.593,16.317c0.879,3.935 1.938,7.83 3.188,11.663c1.012,3.1 2.148,6.16 3.42,9.162c1.047,2.471 2.185,4.904 3.423,7.285c0.987,1.899 2.038,3.765 3.158,5.59c0.855,1.394 1.75,2.763 2.688,4.103c0.748,1.07 1.524,2.121 2.329,3.15c0.7,0.896 1.422,1.775 2.166,2.634c0.639,0.738 1.295,1.462 1.967,2.169c3.982,4.189 8.592,7.839 13.801,10.381c1.24,0.605 2.512,1.142 3.809,1.615c0.446,0.124 0.894,0.246 1.341,0.367c3.553,0.941 7.148,1.719 10.78,2.286c6.031,0.941 12.158,1.311 18.256,0.974c6.115,-0.337 12.189,-1.39 18.042,-3.199c3.964,-1.226 7.82,-2.794 11.516,-4.679c2.629,-1.341 5.176,-2.842 7.628,-4.485c1.795,-1.204 3.539,-2.484 5.228,-3.832c1.148,-0.917 2.271,-1.866 3.368,-2.845c8.377,-7.471 15.178,-16.611 20.429,-26.507c0.835,-1.574 1.631,-3.168 2.39,-4.779c0.913,-1.942 1.772,-3.909 2.576,-5.899c1.143,-2.827 2.176,-5.698 3.1,-8.604c1.197,-3.764 2.213,-7.585 3.046,-11.445c1.053,-4.882 1.815,-9.828 2.275,-14.802c0.388,-4.199 0.56,-8.419 0.501,-12.636c-0.045,-3.274 -0.23,-6.546 -0.566,-9.803c-0.259,-2.523 -0.609,-5.036 -1.055,-7.531c-0.35,-1.962 -0.761,-3.914 -1.234,-5.85c-0.35,-1.431 -0.734,-2.854 -1.155,-4.266c-0.369,-1.239 -0.766,-2.471 -1.192,-3.693c-2.682,-7.689 -6.533,-15.023 -11.753,-21.3c-0.963,-1.157 -1.971,-2.277 -3.023,-3.354c-1.469,-1.503 -3.024,-2.923 -4.659,-4.244c-2.355,-1.904 -4.876,-3.602 -7.528,-5.066c-3.441,-1.898 -7.097,-3.396 -10.871,-4.49c-0.864,-0.251 -1.735,-0.48 -2.611,-0.689c-0.851,-0.203 -1.708,-0.386 -2.564,-0.566c-1.564,-0.329 -3.132,-0.636 -4.705,-0.918c-5.014,-0.9 -10.076,-1.555 -15.16,-1.893c-2.07,-0.138 -4.142,-0.219 -6.216,-0.249c-0.56,-0.007 -1.12,-0.009 -1.68,-0.009Zm-276.007,-52.775c-6.578,0.787 -13.092,2.117 -19.434,4.036c-8.336,2.522 -16.36,6.066 -23.801,10.595c-4.121,2.508 -8.059,5.313 -11.777,8.386c-3.73,3.084 -7.237,6.438 -10.492,10.021c-3.219,3.545 -6.19,7.313 -8.895,11.264c-1.615,2.359 -3.136,4.784 -4.559,7.264c-9.407,16.392 -14.527,35.169 -15.022,54.046c-0.292,11.138 1.029,22.327 4.03,33.061c1.019,3.645 2.231,7.236 3.636,10.75c2.08,5.2 4.583,10.232 7.493,15.018c3.861,6.35 8.441,12.26 13.636,17.576c4.788,4.898 10.093,9.285 15.784,13.096c5.353,3.585 11.042,6.658 16.949,9.225c7.638,3.318 15.631,5.787 23.775,7.512c8.22,1.74 16.61,2.724 25.017,2.735c5.089,0.007 10.179,-0.343 15.213,-1.083c5.318,-0.781 10.571,-1.997 15.683,-3.657c6.322,-2.053 12.42,-4.783 18.163,-8.13c5.79,-3.374 11.213,-7.368 16.185,-11.859c1.702,-1.537 3.351,-3.132 4.945,-4.779c10.069,-10.4 17.927,-22.843 23.484,-36.186c0.852,-2.047 1.651,-4.117 2.397,-6.205c0.959,-2.688 1.829,-5.408 2.609,-8.153c1.012,-3.558 1.873,-7.158 2.582,-10.789c0.949,-4.861 1.624,-9.775 2.017,-14.712c0.604,-7.593 0.541,-15.242 -0.246,-22.819c-1.232,-11.858 -4.248,-23.571 -9.299,-34.387c-0.723,-1.548 -1.488,-3.078 -2.294,-4.584c-0.993,-1.859 -2.05,-3.684 -3.17,-5.469c-1.44,-2.297 -2.984,-4.529 -4.63,-6.684c-2.269,-2.97 -4.73,-5.794 -7.369,-8.441c-4.088,-4.102 -8.602,-7.775 -13.445,-10.95c-4.732,-3.104 -9.771,-5.729 -15.007,-7.874c-4.298,-1.761 -8.727,-3.198 -13.23,-4.335c-1.986,-0.502 -3.986,-0.938 -5.994,-1.336c-1.507,-0.298 -3.018,-0.576 -4.533,-0.834c-5.352,-0.91 -10.748,-1.561 -16.166,-1.911c-2.639,-0.17 -5.282,-0.265 -7.927,-0.291c-0.545,-0.004 -1.091,-0.005 -1.636,-0.004c-0.545,0.003 -1.09,0.009 -1.636,0.017c-2.119,0.091 -4.236,0.208 -6.352,0.349c-2.23,0.148 -4.458,0.323 -6.684,0.521Z" style="fill:#321304;"/><path d="M161.43,570.616c10.954,-23.099 33.385,-35.725 58.954,-34.533c18.75,0.874 39.146,11.547 56.436,28.982" style="fill:none;stroke:#471c06;stroke-width:24px;"/><path d="M209.058,615.212c0.933,0.019 1.866,0.049 2.798,0.099c1.866,0.099 3.728,0.263 5.582,0.493c6.375,0.792 12.653,2.359 18.65,4.664c5.821,2.238 11.372,5.17 16.502,8.718c7.433,5.14 13.98,11.563 19.265,18.895c4.368,6.061 7.863,12.742 10.352,19.786c2.33,6.597 3.777,13.503 4.299,20.48c0.081,1.079 0.14,2.161 0.176,3.243c0.011,0.307 0.019,0.62 0.026,0.927c0.008,0.326 0.015,0.667 0.006,0.992c-0.01,0.375 -0.038,0.749 -0.084,1.122c-0.136,1.117 -0.43,2.214 -0.871,3.25c-0.515,1.208 -1.229,2.33 -2.106,3.308c-0.877,0.977 -1.914,1.809 -3.059,2.452c-1.638,0.919 -3.487,1.445 -5.363,1.525c-1.876,0.081 -3.763,-0.286 -5.473,-1.062c-1.025,-0.465 -1.983,-1.075 -2.839,-1.807c-0.998,-0.854 -1.854,-1.871 -2.523,-3.001c-0.67,-1.13 -1.152,-2.369 -1.422,-3.654c-0.115,-0.551 -0.192,-1.11 -0.229,-1.671c-0.027,-0.415 -0.029,-0.83 -0.039,-1.245c-0.007,-0.216 -0.014,-0.432 -0.022,-0.648c-0.028,-0.647 -0.063,-1.294 -0.111,-1.941c-0.113,-1.509 -0.288,-3.013 -0.524,-4.508c-0.677,-4.293 -1.862,-8.505 -3.528,-12.518c-1.526,-3.679 -3.457,-7.188 -5.745,-10.447c-3.559,-5.068 -7.979,-9.536 -13.006,-13.152c-3.971,-2.857 -8.324,-5.175 -12.911,-6.875c-3.991,-1.479 -8.153,-2.491 -12.377,-3.015c-1.402,-0.174 -2.811,-0.295 -4.223,-0.361c-0.663,-0.031 -1.326,-0.048 -1.99,-0.058l-0.562,-0.022c-0.187,-0.016 -0.374,-0.027 -0.561,-0.048c-0.373,-0.04 -0.744,-0.099 -1.111,-0.174c-1.287,-0.264 -2.528,-0.741 -3.661,-1.405c-1.294,-0.76 -2.443,-1.764 -3.369,-2.945c-0.927,-1.182 -1.627,-2.536 -2.057,-3.975c-0.321,-1.078 -0.49,-2.202 -0.5,-3.327c-0.014,-1.69 0.332,-3.377 1.011,-4.924c0.679,-1.547 1.686,-2.945 2.939,-4.078c0.834,-0.755 1.775,-1.392 2.787,-1.885c1.18,-0.576 2.455,-0.956 3.757,-1.121c0.373,-0.047 0.747,-0.077 1.122,-0.089c0.187,-0.006 0.375,-0.003 0.563,-0.005c0.143,0.003 0.287,0.005 0.431,0.007Z" style="fill:#471c06;fill-rule:nonzero;"/><path d="M520.341,756.218c0.29,0.036 0.581,0.062 0.869,0.109c0.577,0.095 1.147,0.231 1.704,0.408c1.393,0.443 2.702,1.143 3.845,2.054c1.143,0.912 2.116,2.033 2.858,3.292c0.297,0.504 0.556,1.029 0.776,1.571c0.225,0.553 0.397,1.126 0.587,1.692c0.095,0.278 0.191,0.556 0.29,0.834c0.266,0.742 0.545,1.479 0.842,2.209c0.637,1.571 1.345,3.112 2.118,4.62c0.555,1.081 1.142,2.144 1.761,3.19c4.602,7.773 10.884,14.486 18.065,19.934c1.181,0.896 2.388,1.759 3.617,2.588c1.539,1.038 3.114,2.023 4.72,2.955c1.947,1.129 3.938,2.18 5.968,3.152c2.406,1.152 4.866,2.193 7.367,3.122c3.276,1.218 6.623,2.244 10.017,3.078c4.146,1.019 8.363,1.753 12.609,2.204c5.101,0.543 10.246,0.678 15.368,0.382c6.546,-0.378 13.054,-1.458 19.356,-3.274c1.903,-0.549 3.787,-1.164 5.647,-1.847c1.609,-0.592 3.2,-1.234 4.769,-1.928c8.902,-3.935 17.135,-9.55 23.663,-16.804c0.874,-0.971 1.716,-1.971 2.524,-2.998c1.04,-1.323 2.022,-2.693 2.94,-4.104c0.38,-0.585 0.747,-1.178 1.107,-1.775l0.479,-0.735c0.177,-0.232 0.345,-0.471 0.531,-0.697c0.371,-0.452 0.775,-0.876 1.208,-1.269c1.516,-1.377 3.383,-2.352 5.38,-2.81c1.711,-0.393 3.503,-0.405 5.218,-0.034c1.716,0.37 3.343,1.12 4.739,2.184c0.931,0.709 1.756,1.553 2.442,2.5c0.687,0.946 1.233,1.993 1.618,3.097c0.481,1.381 0.707,2.848 0.663,4.309c-0.044,1.461 -0.357,2.912 -0.92,4.261c-0.113,0.269 -0.235,0.535 -0.367,0.796c-0.255,0.503 -0.552,0.983 -0.845,1.463c-0.443,0.723 -0.898,1.439 -1.364,2.148c-3.424,5.203 -7.46,9.994 -11.958,14.3c-2.475,2.369 -5.09,4.592 -7.821,6.663c-2.413,1.83 -4.916,3.54 -7.493,5.13c-2.233,1.378 -4.523,2.664 -6.858,3.859c-9.36,4.787 -19.457,8.095 -29.8,9.943c-7.595,1.357 -15.326,1.928 -23.038,1.741c-3.906,-0.094 -7.808,-0.383 -11.687,-0.86c-6.234,-0.767 -12.409,-2.023 -18.443,-3.771c-7.435,-2.153 -14.656,-5.055 -21.494,-8.685c-2.264,-1.202 -4.485,-2.484 -6.658,-3.844c-2.522,-1.58 -4.978,-3.264 -7.356,-5.053c-2.813,-2.115 -5.518,-4.374 -8.094,-6.773c-2.855,-2.659 -5.553,-5.488 -8.061,-8.477c-5.299,-6.314 -9.754,-13.347 -13.055,-20.905c-0.791,-1.813 -1.516,-3.654 -2.17,-5.52c-0.187,-0.533 -0.368,-1.068 -0.544,-1.605c-0.137,-0.42 -0.249,-0.762 -0.359,-1.215c-0.07,-0.284 -0.129,-0.571 -0.178,-0.859c-0.194,-1.153 -0.218,-2.333 -0.072,-3.493c0.146,-1.16 0.462,-2.298 0.937,-3.367c0.592,-1.336 1.431,-2.561 2.462,-3.597c1.031,-1.036 2.251,-1.881 3.585,-2.481c1.066,-0.479 2.202,-0.802 3.361,-0.954c0.774,-0.101 0.971,-0.084 1.749,-0.1c0.292,0.015 0.584,0.031 0.876,0.046Z" style="fill:#471c06;fill-rule:nonzero;"/></g></svg>